<?xml version="1.0" standalone="no"?>
<!DOCTYPE svg PUBLIC "-//W3C//DTD SVG 1.1//EN" "http://www.w3.org/Graphics/SVG/1.1/DTD/svg11.dtd" >
<svg xmlns="http://www.w3.org/2000/svg">
<metadata>Generated by IcoMoon</metadata>
<defs>
<font id="TeamRubicon" horiz-adv-x="1024">
<font-face units-per-em="1024" ascent="960" descent="-64" />
<missing-glyph horiz-adv-x="1024" />
<glyph unicode="&#x20;" horiz-adv-x="512" d="" />
<glyph unicode="&#xe900;" glyph-name="Search" d="M698.196 261.851c-143.99-143.994-378.195-143.994-522.188 0-143.995 143.99-143.995 378.223 0 522.157 143.992 143.993 378.198 143.993 522.188 0 143.995-143.933 143.995-378.166 0-522.157zM245.649 714.427c-105.579-105.579-105.579-277.358 0-382.94 105.579-105.578 277.387-105.578 382.905 0 105.577 105.525 105.577 277.36 0 382.94s-277.326 105.518-382.905 0zM991.986 37.645l-69.585-69.645-293.786 293.851 69.582 69.579z" />
<glyph unicode="&#xe901;" glyph-name="Accomodations" d="M0 643.115h60.56v-401.705h-60.56v401.705zM29.938 425.046h960.274v-60.552h-960.274v60.552zM963.448 516.865h60.552v-275.454h-60.552v275.454zM282.446 561.199c0-48.595-39.39-88.008-88.001-88.008-48.595 0-87.985 39.413-87.985 88.008s39.39 87.992 87.985 87.992c48.609 0 88.001-39.398 88.001-87.992zM278.621 470.955c30.606 80.325 68.856 175.986 175.986 179.81 107.121 3.826 332.857-26.78 443.789-179.81h-619.775z" />
<glyph unicode="&#xe902;" glyph-name="Alert" d="M475.558 201.338h81.697v94.16h-81.697v-94.16zM475.558 431.095l17.006-98.707h47.668l17.023 98.707v159.429h-81.697v-159.429zM981.974 79.916c-9.81-17.15-28.332-27.793-48.331-27.793h-834.501c-19.998 0-38.509 10.643-48.348 27.812-9.885 17.186-9.885 38.548 0 55.773l417.255 722.358c9.933 17.12 28.351 27.753 48.093 27.753h0.502c19.742 0 38.17-10.633 48.076-27.736l417.253-722.358c9.932-17.242 9.932-38.604 0-55.808z" />
<glyph unicode="&#xe903;" glyph-name="Bulldozer" d="M675.167 319.204l-0.554 0.095-530.591 133.181c-7.015 1.967-13.996 2.937-21.010 2.937-33.371 0-62.569-21.342-72.629-53.144l-3.603-10.409-5.523-15.9-35.719-102.985c-3.667-9.093-5.538-18.676-5.538-28.499 0-41.987 34.18-76.152 76.184-76.152h583.944c42.004 0 76.2 34.165 76.2 76.152-0.001 36.212-25.724 67.632-61.156 74.724zM74.356 197.097c-26.134 0-47.414 21.263-47.414 47.382 0 26.152 21.278 47.415 47.414 47.415 26.152 0 47.415-21.263 47.415-47.415 0-26.118-21.263-47.382-47.415-47.382zM129.736 331.882c-0.729-0.030-1.46-0.062-2.174-0.062-21.406 0-39.529 14.249-45.417 33.736-1.317 4.349-2.014 8.951-2.014 13.711 0 26.118 21.263 47.382 47.43 47.382 26.12 0 47.384-21.263 47.384-47.382 0-25.438-20.073-46.226-45.21-47.384zM658.315 197.097c-26.152 0-47.431 21.263-47.431 47.382 0 15.917 7.855 29.993 19.899 38.593 7.76 5.586 17.281 8.822 27.532 8.822 7.219 0 14.043-1.602 20.152-4.507 16.060-7.586 27.231-23.961 27.231-42.91 0-26.118-21.263-47.382-47.382-47.382zM194.037 465.828l2.365 93.956 517.39-152.049-10.997 94.734c0 0-539.126 208.305-560.233 214.635-21.121 6.348-43.305 10.568-62.299-1.047-19.010-11.615-34.848-27.468-38.020-54.904-1.826-15.884-17.505-217.334-20.677-238.438 16.9 30.626 42.765 50.779 77.611 56.047 34.848 5.284 71.631-3.442 94.861-12.933zM224.217 461.511l-1.555 60.331 432.921-124.583 17.024-58.617zM297.514 687.875l24.501 35.561h208.002l48.573-142.545zM724.343 558.483c6.602-47.985 5.363-86.833 28.102-236.676l271.555 87.576-46.223 65.505-253.435 83.595z" />
<glyph unicode="&#xe904;" glyph-name="Calendar" d="M870.583 921.6h34.016v-243.439h-34.016v243.439zM116.582 921.6h34.016v-243.439h-34.016v243.439zM921.606 810.337v-62.366h29.764v-124.718h-124.717v124.718h26.922v62.366h-685.972v-62.366h29.447v-124.718h-124.718v124.718h27.239v62.366h-94.97v-912.737h1014.797v912.737h-97.794zM951.37-34.369h-878.737v504.552h878.737v-504.552z" />
<glyph unicode="&#xe905;" glyph-name="Cash" d="M529.648 428.137v67.369c15.938-3.386 31.215-10.336 46.17-21.173 1.109-0.803 2.663-0.509 3.358 0.679l17.474 29.311c0.608 1.027 0.323 2.377-0.643 3.092-19.028 13.793-39.809 22.576-64.929 25.666v32.955c0 1.277-1.045 2.341-2.35 2.341h-26.175c-1.286 0-2.324-1.064-2.324-2.341v-32.241c-44.338-3.546-74.471-29.436-74.471-67.708v-0.714c0-39.727 24.121-59.22 75.874-72.693v-69.505c-22.299 3.431-40.961 13.508-60.464 28.946-1.045 0.841-2.581 0.608-3.351-0.464l-20.003-28.426c-0.706-1.018-0.509-2.43 0.483-3.198 23.746-18.368 51.815-30.268 81.931-33.734v-33.125c0-1.286 1.036-2.321 2.324-2.321h26.175c1.305 0 2.35 1.036 2.35 2.321v32.787c45.025 3.876 75.525 29.766 75.525 68.431v0.696c0 37.952-23.066 59.57-76.954 73.051zM501.632 435.588c-27.292 8.157-34.047 17.725-34.047 32.25v0.714c0 15.606 11.711 27.667 34.047 29.436v-62.402zM564.757 351.907c0-17.028-12.775-28.375-35.109-30.143v64.18c27.659-8.165 35.109-17.725 35.109-33.322v-0.714zM274.057 408.438c0 98.87 60.436 183.623 146.351 219.394h-420.409v-436.463h415.085c-83.083 37.020-141.028 120.246-141.028 217.068zM602.852 627.831c85.922-35.77 146.351-120.515 146.351-219.394 0-96.822-57.963-180.047-141.046-217.051h415.843v436.444h-421.149z" />
<glyph unicode="&#xe906;" glyph-name="Checkmark" d="M22.771 421.010l341.333-523.41 637.124 1024-637.124-682.667z" />
<glyph unicode="&#xe907;" glyph-name="Crate" d="M0 925.404h1024v-193.717h-1024v193.717zM0 164.302h1024v-193.706h-1024v193.706zM55.369 691.975h301.659l612.418-488.682h-294.14zM420.686 691.975h559.058v-441.85zM606.111 203.085h-559.056v441.85z" />
<glyph unicode="&#xe908;" glyph-name="Donation" d="M97.453 692.353h829.095v-96.99h-829.095v96.99zM534.802 225.561v-96.431c33.553 2.659 52.753 19.691 52.753 45.3v1.074c0 23.419-11.197 37.787-52.753 50.057zM441.566 349.68v-1.029c0-21.853 10.113-36.247 51.145-48.493v93.77c-33.568-2.682-51.145-20.805-51.145-44.249zM141.245-64h742.262v628.075h-742.262v-628.075zM650.418 178.139c0-58.082-45.814-96.967-113.482-102.821v-49.235c0-1.92-1.577-3.507-3.497-3.507h-39.366c-1.922 0-3.476 1.587-3.476 3.507v49.748c-45.242 5.205-87.447 23.106-123.125 50.706-1.465 1.118-1.777 3.264-0.703 4.805l30.047 42.684c1.141 1.654 3.452 1.967 5.039 0.715 29.308-23.197 57.344-38.326 90.844-43.489v104.454c-77.783 20.203-114.009 49.523-114.009 109.192v1.050c0 57.546 45.288 96.454 111.907 101.762v48.449c0 1.922 1.553 3.499 3.476 3.499h39.368c1.92 0 3.497-1.575 3.497-3.499v-49.501c37.722-4.638 68.964-17.845 97.569-38.585 1.474-1.072 1.878-3.083 0.938-4.669l-26.214-44.027c-1.050-1.763-3.419-2.234-5.071-1.003-22.462 16.268-45.412 26.704-69.346 31.8v-101.212c80.966-20.249 115.605-52.741 115.605-109.773v-1.056zM465.992 680.831c-41.846 0-102.129 21.285-142.836 64.329-42.639 45.087-65.155 92.274-61.769 129.461 1.899 20.751 11.721 38.17 28.359 50.338 47.936 35.041 119.973-1.71 170.066-53.746 41.243-42.841 81.268-132.044 50.092-174.335-6.949-9.431-19.353-14.762-36.929-15.834-2.246-0.146-4.583-0.214-6.985-0.214zM334.275 901.349c-8.471 0-16.068-2.089-22.405-6.682-7.888-5.788-12.168-13.454-13.085-23.453-2.335-25.678 17.431-64.105 51.646-100.24 44.942-47.501 115.471-57.847 129.943-50.797 11.823 19.52-10.079 85.995-47.58 124.991-30.046 31.188-69.276 56.183-98.517 56.183zM543.918 680.831c-2.4 0-4.714 0.078-6.97 0.212-17.557 1.074-29.982 6.404-36.943 15.834-31.163 42.293 8.861 131.496 50.093 174.335 50.081 52.037 122.11 88.788 170.090 53.758 16.649-12.178 26.435-29.599 28.314-50.35 3.419-37.186-19.107-84.374-61.746-129.461-40.718-43.041-100.968-64.328-142.838-64.328zM529.549 720.175c14.436-7.028 84.977 3.297 129.941 50.807 34.192 36.125 53.992 74.552 51.646 100.23-0.915 10-5.207 17.666-13.119 23.453-28.202 20.592-82.173-9.286-120.855-49.501-37.566-38.996-59.466-105.47-47.612-124.991zM565.183 678.284c-7.039 0-13.766 3.978-16.973 10.782-4.436 9.353-0.402 20.549 8.973 24.963 197.689 93.258 238.856 79.793 300.154 45.702 9.052-5.039 12.314-16.459 7.264-25.544-5.074-9.061-16.494-12.292-25.523-7.273-47.624 26.526-76.384 42.515-265.872-46.819-2.615-1.244-5.341-1.811-8.023-1.811zM443.152 678.284c-2.682 0-5.396 0.57-7.989 1.81-189.498 89.334-218.238 73.324-265.882 46.819-9.062-5.017-20.483-1.787-25.521 7.273-5.062 9.085-1.787 20.504 7.252 25.544 61.289 34.091 102.477 47.522 300.176-45.702 9.365-4.412 13.386-15.61 8.95-24.963-3.185-6.803-9.934-10.781-16.986-10.781z" />
<glyph unicode="&#xe909;" glyph-name="Earthquake" d="M105.286 584.214l13.483-62.459 481.73 68.575 327.002-359.275 54.789 42.064-360.005 394.918zM381.595 656.549l-120.648-20.549 61.686 172.804 100.511-35.881zM514.807 87.724l275.274-0.528 65.993 183.258-267.401 292.288-396.223-57.346-150.74-416.78 289.59-0.545 74.068 214.855 88.888 11.801 70.955 181.483 31.777-258.602-105.137-25.882z" />
<glyph unicode="&#xe90a;" glyph-name="EstateGiving" d="M45.854 488.177l33.76-54.398 431.443 226.982 429.572-228.852 37.517 58.151-472.716 251.361zM282.203 649.495l-106.921-60.024v183.84h106.921zM529.647 336.020v-77.808c27.082 2.149 42.558 15.9 42.558 36.536v0.863c0.001 18.911-9.017 30.515-42.558 40.409zM454.425 436.177v-0.847c0-17.625 8.155-29.244 41.257-39.123v75.66c-27.081-2.149-41.257-16.763-41.257-35.69zM509.187 630.743l-354.542-187.58v-317.024l705.326-3.45v322.344l-350.785 185.71zM622.934 297.76c0-46.869-36.961-78.261-91.562-82.968v-39.737c0-1.565-1.271-2.822-2.836-2.822h-31.743c-1.564 0-2.821 1.257-2.821 2.822v40.162c-36.493 4.195-70.545 18.62-99.323 40.892-1.198 0.922-1.447 2.646-0.585 3.889l24.246 34.447c0.935 1.33 2.791 1.577 4.063 0.585 23.648-18.722 46.256-30.94 73.308-35.104v84.268c-62.757 16.324-91.987 39.971-91.987 88.126v0.863c0 46.417 36.537 77.809 90.276 82.106v39.065c0 1.579 1.256 2.849 2.821 2.849h31.743c1.565 0 2.836-1.271 2.836-2.849v-39.928c30.457-3.756 55.653-14.395 78.731-31.144 1.184-0.847 1.518-2.498 0.759-3.756l-21.163-35.543c-0.846-1.403-2.733-1.769-4.091-0.79-18.108 13.125-36.64 21.556-55.961 25.664v-81.683c65.342-16.339 93.287-42.557 93.287-88.552v-0.861z" />
<glyph unicode="&#xe90b;" glyph-name="FAQ" d="M515.402 910.394c-246.432 0-446.144-199.76-446.144-446.15 0-246.394 199.712-446.15 446.144-446.15 246.416 0 446.15 199.757 446.15 446.15 0 246.39-199.725 446.15-446.15 446.15zM578.006 152.81h-125.078v123.587h125.078v-123.587zM578.006 385.024v-66.474h-125.078v123.136h0.074c111.066 82.374 125.011 98.445 125.011 143.61 0 39.098-16.474 60.765-81.606 60.765-39.11 0-84.259-6.080-127.661-13.853l-17.386 107.68c59.914 12.157 105.062 17.334 158.944 17.334 155.386 0 192.774-62.502 192.774-164.989 0-94.816-7.315-118.182-125.056-207.203l-0.016-0.006z" />
<glyph unicode="&#xe90c;" glyph-name="Fire" d="M821.638 404.361c-16.652 44.036-43.145 84.227-77.237 117.386 1.048-18.067 1.101-44.893-4.072-73.237-12.233-67.068-45.592-106.578-100.942-119.945-3.138-0.752-10.449-2.343-10.879-0.307-0.393 1.843 1.52 8.571 2.664 11.576 0.375 0.953 32.153 92.903 21.074 214.318-6.457 71.045-27.548 137.229-62.699 196.799-40.044 67.873-98.592 127.33-174.267 177.047 9.209-25.087 22.097-67.259 28.518-120.542 9.629-79.806 5.619-198.441-67.853-318.973-2.002-3.313-6.674-10.258-9.751-9.235-1.537 0.524-2.647 11.254-3.056 14.852-1.040 8.729-6.833 166.343-135.281 263.028 20.131-49.942 51.307-158.618 5.497-277.742-2.386-6.17-4.832-12.415-7.321-18.751-13.561-34.511-27.593-70.212-34.050-106.952-14.748-83.756 4.92-168.412 55.36-238.381 50.502-70.039 125.783-116.959 211.977-132.136 86.194-15.168 172.981 3.241 244.349 51.84 71.296 48.535 118.672 121.396 133.419 205.161 9.682 55.053 4.332 111.857-15.449 164.192zM625.214 67.617c-47.741-42.447-121.659-54.128-180.428-43.916-69 16.822-117.298 56.602-142.435 134.136-19.599 60.393-21.31 122-10.092 204.367 5.365-10.895 12.161-24.282 19.607-38.077 24.194-44.736 43.774-72.415 58.138-82.298 3.295-2.255 7.68-1.984 10.651 0.665 5.041 4.491 116.023 104.988 126.832 256.458 25.951-52.214 71.34-173.148 18.252-303.053-0.943-2.342-0.82-4.99 0.34-7.244 1.162-2.261 3.278-3.89 5.74-4.456 1.433-0.322 35.56-7.968 74.084-3.292 39.475 4.778 69.068 20.776 87.155 46.805 1.383-63.112-25.11-122.106-67.843-160.094z" />
<glyph unicode="&#xe90d;" glyph-name="FirstAid" d="M390.349 786.345h243.286l6.871-63.814h52.406l-9.372 113.696h-343.074l-9.934-113.696h52.423zM570.609 551.153h-117.201v-117.201h-117.227v-117.236h117.227v-117.202h117.201v117.202h117.201v117.236h-117.201v117.201zM985.011 69.335c0-5.259-4.285-9.561-9.561-9.561h-926.901c-5.275 0-9.561 4.301-9.561 9.561v611.991c0 5.275 4.287 9.561 9.561 9.561h926.901c5.276 0 9.561-4.287 9.561-9.561v-611.991z" />
<glyph unicode="&#xe90e;" glyph-name="Flood" d="M299.295 256.478l0.297-0.233c30.226-24.015 72.421-24.015 102.63 0l0.311 0.233c59.547 45.581 142.72 45.581 202.267 0l0.31-0.233c30.211-24.015 72.405-24.015 102.616 0l0.327 0.265c45.379 34.643 104.488 42.867 156.404 24.655v208.851l-353.409 187.097-357.187-188.971v-203.482c49.139 13.498 103.209 4.12 145.434-28.183zM961.924 127.086v-0.327c-23.485-0.592-46.377 7.272-64.571 22.126-52.057 39.776-124.306 39.776-176.392 0-37.779-30.024-91.287-30.024-129.081 0-52.057 39.838-124.353 39.838-176.409 0-37.795-30.024-91.318-30.024-129.095 0-52.072 39.838-124.353 39.838-176.41 0-18.116-14.996-41.024-22.987-64.539-22.454-1.717 0-3.355-0.249-4.947-0.624v-40.667c1.591-0.39 3.23-0.623 4.947-0.623 32.051-0.343 63.229 10.47 88.196 30.583 37.794 30.024 91.286 30.024 129.095 0 52.041-39.853 124.336-39.853 176.392 0 37.794 30.024 91.317 30.024 129.095 0 52.071-39.79 124.336-39.79 176.408 0 37.827 29.96 91.287 29.96 129.096 0 25.076-19.848 56.223-30.412 88.211-29.93 0.905 0 1.811 0.096 2.684 0.218v41.51c-0.872 0.124-1.777 0.186-2.683 0.186zM45.411 167.659c32.051-0.329 63.245 10.485 88.213 30.584 37.779 30.022 91.302 30.022 129.095 0 52.057-39.823 124.336-39.823 176.409 0 37.779 30.022 91.303 30.022 129.095 0 52.072-39.762 124.336-39.762 176.392 0 37.827 29.991 91.287 29.991 129.081 0 25.076-19.849 56.239-30.398 88.211-29.898 0.921 0 1.826 0.064 2.7 0.204v41.492c-0.873 0.124-1.778 0.218-2.7 0.218v-0.344c-23.469-0.609-46.361 7.257-64.539 22.126-52.074 39.777-124.321 39.777-176.409 0-37.794-30.038-91.302-30.038-129.096 0-52.056 39.823-124.351 39.823-176.409 0-37.794-30.038-91.302-30.038-129.080 0-52.057 39.823-124.368 39.823-176.41 0-18.116-15.011-41.024-23.001-64.555-22.469-1.685 0-3.339-0.235-4.914-0.624v-40.667c1.576-0.39 3.23-0.623 4.914-0.623zM282.38 696.025l-107.717-60.484v185.209h107.717zM44.272 533.49l34.019-54.805 434.662 228.669 432.775-230.557 37.794 58.595-476.248 253.215z" />
<glyph unicode="&#xe90f;" glyph-name="Globe" d="M511.995 928c-264.65 0-479.991-215.317-479.991-480 0-264.652 215.339-480 479.991-480 264.682 0 480 215.348 480 480 0 264.683-215.317 480-480 480zM315.168 750.446c7.383 1.597 17.164-1.017 12.529-12.466-4.663-11.467 0.608-12.252 4.192-16.988 3.593-4.748 12.271-1.523 10.758-13.796-1.544-12.272-0.217-13.136 6.343-13.444 6.578-0.299 1.504-9.575-8.494-12.83-10.018-3.243-17.965 1.422-24.019-2.634-6.053-4.046-13.681 7.196-3.241 10.882 10.419 3.696 2.512 6.157-0.156 7.865-2.656 1.71-7.69 14.744-3.388 18.789 4.303 4.026 0.845 14.672-2.213 14.611s-7.546 16.658 7.689 20.013zM305.853 718.798c2.273-7.382-5.333-10.883-2.256-14.744 3.099-3.881 6.177-7.741 2.718-11.705-3.438-3.985-24.924-8.791-21.065-0.37 3.86 8.39 0.546 18.594 1.854 21.652 1.606 3.771 3.593 6.744 8.647 7.907 4.026 0.907 8.348 2.863 10.101-2.738zM192.603 217.057c-8.048-10.346-23.296-24.876-33.48-42.17-43.075 55.687-73.313 121.814-86.152 193.962 14.631-7.928 28.589-14.083 40.719-17.265 65.869-17.183 109.831-28.365 110.798-57.335s-5.571-43.333-31.886-77.192zM191.513 693.617c-16.339-0.669-7.907 23.874-12.972 50.159 31.987 35.973 69.648 66.775 111.622 90.928-10.007-25.203-27.385-65.323-42.355-82.138-22.587-25.336-29.711-57.848-56.295-58.949zM512.213 1.472c-36.962 0-72.872 4.508-107.217 12.981 6.301 10.985 13.661 21.167 22.135 28.911 35.993 32.811 54 17.057 74.24 20.424 20.242 3.377 83.227 3.377 96.715 16.875 13.517 13.499 35.992 22.494 42.746 0 6.743-22.496 24.75-22.496 47.224-26.995 4.912-0.99 12.148-3.244 20.364-6.826-59.218-29.052-125.809-45.37-196.206-45.37zM699.145 291.717c-12.542-11.295-7.526-36.385-17.565-40.163-10.027-3.757-25.088 7.526-21.331 18.83 3.769 11.305 13.868 22.578 13.22 28.857-0.681 6.27 5.61 31.358 14.404 22.589 8.731-8.751 15.053 2.512 22.556 5.013 7.549 2.512 1.268-23.845-11.281-35.127zM911.178 420.655c-0.547 28.066-4.613 67.557-7.269 78.606-2.667 11.047-10.213-26.213-20.179-10.738-14.423 22.313-42.664 71.678-42.664 71.678s-79.676-3.254-105.353 2.603c-16.153 3.698-60.432 27.313-60.432 27.313s7.546-39.172 31.823-51.426c24.264-12.251 25.254 4.51 32.018 9.358 10.418 7.422 39.709 0.565 48.037-17.523 8.35-18.089-74.764-63.904-93.872-58.303-19.131 5.612-54.102 68.485-61.084 67.98s-15.412-12.817-15.412-12.817 42.336-67.642 62.009-81.076c19.696-13.424 40.945 15.524 51.158 3.757 10.203-11.789-15.65-60.897-43.673-93.348-28.003-32.42-60.423-100.236-58.209-130.452 2.213-30.206-50.899-38.794-72.118-68.37-21.209-29.611-38.835 20.507-46.042 38.689-7.195 18.151-34.499 103.592-35.744 152.568-1.247 49.005-36.859-7.36-72.068-5.271-35.189 2.090-102.17 93.933-103.756 137.513-1.584 43.582 27.807 76.133 61.001 76.226 33.182 0.084 65.674 35.191 76.515 14.951 10.821-20.242 35.211-32.831 56.996-27.561 21.752 5.271 12.735 32.657 33.983 29.536 21.279-3.099 48.079-9.576 62.543 7.845 14.454 17.438-1.883 57.377-35.889 43.2-5.713-2.4-11.911-3.912-18.386-4.778-7.486-13.333 0.72-28.807-9.174-32.514-13.517-5.065-42.212-6.753-34.221 10.141 4.643 9.779-3.944 20.159-11.953 27.107-14.301 3.52-27.366 8.124-37.177 12.006-6.405 2.542-15.814 2.634-26.437 0.844 13.158-8.545 28.343-18.264 36.434-23.072 16.235-9.616 19.612-33.542 9.761-33.862-9.821-0.32-36.919 19.899-50.54 25.451-9.997 4.048-28.394 12.776-37.466 17.122-20.827-10.687-38.567-25.769-41.665-41.685-6.806-34.79-28.29-33.439-49.572-30.32-10.789 1.586-23.361-2.512-28.507 11.325-4.993 13.404-2.966 44.485 9.194 61.021 9.79 13.26 29.125-8.328 52.269-0.339 15.566 5.375-29.114 38.412-9.059 39.893 42.776 3.14 78.512 32.74 88.364 34.726 18.43 3.687 59.672 0.289 66.538 17.164 6.919 16.844 38.422 29.753-1.793 36.137-40.202 6.413-38.669-14.507-39.977-28.633-1.308-14.103-36.323-14.341-35.376 4.429 0.967 18.767 20.365 41.222-3.232 44.177-23.587 2.924-9.142 29.033 9.595 28.394 18.747-0.607 88.159 9.13 146.501-21.653 58.334-30.784 40.203 42.675 50.015 59.754 3.748 6.538 16.483 22.559 37.001 41.048 191.978-49.862 333.735-224.295 333.735-431.859 0-40.863-5.529-80.395-15.814-117.965-14.594 32.235-30.997 71.582-31.374 90.999z" />
<glyph unicode="&#xe910;" glyph-name="Gloves" d="M960.412 399.856l-0.92 1.123c-13.011 15.873-25.7 31.473-38.046 46.664-61.278 75.369-112.506 138.375-158.335 174.232l-12.857 9.419c-8.003 5.457-15.839 10.048-23.554 13.598-9.249 8.634-15.328 41.385-14.119 47.284 1.566 6.813-6.216 27.691-15.056 36.711-6.096 6.259-11.919 6.624-15.719 5.824-10.867-2.291-26.313-7.384-45.968-15.108 0.803-2.563 1.603-5.074 2.351-7.792l0.204-0.732 3.679-15.489c12.297-60.34 10.354-144.173 8.106-241.207-0.442-19.533-0.92-39.58-1.276-60.051l-0.053-1.84c-0.442-10.047-3.951-43.58-31.54-61.922-16.792-11.106-37.706-12.926-58.893-5.078-0.477 0.154-1.398 0.51-2.35 0.887-41.717 16.673-59.625 73.437-56.133 119.98-3.789-21.766-8.15-39.258-12.365-56.254-2.378-9.47-4.24-18.87-6.234-28.85-1.719-8.669-3.484-17.524-5.595-26.654-2.282-9.894-5.321-22.072-8.72-35.168 3.781-16.996 6.276-34.3 5.791-53.169v-0.41l0.12-5.023c1.311-54.022 4.044-166.424 50.631-187.44 11.267-5.075 20.275-5.4 27.599-1.004 12.704 7.662 16.349 27.385 18.323 58.84 0.718 11.036-0.101 26.211-1.073 43.767-1.721 31.423-3.832 70.491 3.729 90.774 0.172 0.425 0.411 0.904 1.262 0.904 0.443 0 1.534-0.156 2.078-1.603 5.96-16.026 10.353-49.013 15.021-83.961 11.426-85.631 24.388-182.689 71.598-185.395 11.631-0.648 20.639 2.811 26.755 10.286 16.008 19.585 5.162 61.14-2.027 88.628-1.516 5.858-2.844 10.899-3.56 14.475-0.017 0.102-0.034 0.172-0.051 0.291-7.393 31.37-13.045 65.925-18.853 115.602-0.068 0.597-0.289 2.42 1.549 2.913 1.295 0.341 2.284-0.306 2.964-1.873 19.416-46.359 37.467-95.442 54.908-142.922 3.441-9.367 6.915-18.751 10.406-28.27 14.084-35.629 29.513-57.087 45.896-63.763 7.529-3.082 15.43-2.999 22.855 0.272 8.449 3.424 14.511 9.503 18.052 17.984 13.198 31.713-12.96 94.044-38.252 154.334-16.86 40.227-32.8 78.203-34.741 101.384-0.12 1.414 0.545 1.975 0.953 2.164 0.615 0.307 1.227 0.153 1.909-0.443 25.375-23.093 50.446-69.724 70.575-107.208 8.432-15.669 16.385-30.468 23.333-41.742 1.123-1.907 2.419-4.291 3.883-6.982 10.013-18.53 25.171-46.51 47.329-48.709 8.14-0.817 16.008 2.012 23.468 8.363 2.436 2.062 4.787 4.48 7.119 7.306 6.282 7.563 9.468 26.808 3.899 44.486-5.586 17.644-44.28 101.775-66.69 144.965-9.233 17.78-18.837 33.482-27.113 50.105-8.771 17.627-17.85 35.867-31.458 58.007-10.065 24.065-19.516 53.221-3.796 60.187 0.747 0.339 2.179 2.146 7.764-0.358 14.222-6.387 25.751-23.008 37.945-40.551 22.036-31.692 64.835-59.658 95.543-49.287 0.272 0.068 0.51 0.188 0.766 0.272 0.578 0.172 1.142 0.374 1.721 0.579 18.12 6.676 24.83 18.239 27.266 26.77 4.853 16.983-3.016 35.343-12.008 46.873zM615.916 705.733c-2.538 9.35-5.535 17.924-9.095 25.657-1.449 12.552 15.173 41.436 19.927 45.132 5.603 4.147 13.214 25.111 12.365 37.705-0.615 8.738-4.803 12.766-8.211 14.629-11.477 6.225-30.245 13.652-55.826 22.022-61.175 20.028-131.119 44.858-146.524 53.593-9.222 5.228-29.939 16.077-41.403 21.136-2.649 1.166-8.091 2.393-14.834-2.53-9.213-6.659-20.828-26.244-20.062-33.729 0.264-5.195-8.941-36.361-29.523-47.498-25.513-13.812-41.334-39.001-58.074-65.663-7.222-11.53-14.698-23.426-22.966-34.232-18.138-23.596-29.523-48.258-40.568-72.116-12.697-27.471-24.695-53.417-46.093-77.199-0.102-0.112-0.17-0.214-0.256-0.316l-3.176-3.908c-34.044-41.981-104.867-129.315-83.032-175.519 5.288-11.155 11.93-17.253 20.334-18.651 14.656-2.436 30.23 10.236 52.148 32.888 7.689 7.935 16.894 20.028 27.573 34.027 19.058 25.010 42.78 56.133 61.702 66.65 0.416 0.248 0.885 0.435 1.534-0.102 0.35-0.298 1.082-1.115 0.536-2.58-5.858-16.060-23.886-44.033-43.003-73.643-46.843-72.585-99.911-154.879-65.765-187.577 8.422-8.003 17.525-11.221 27.045-9.503 24.891 4.529 43.564 43.191 55.945 68.752 2.64 5.434 4.906 10.15 6.686 13.335 0.051 0.103 0.084 0.172 0.118 0.24 14.74 28.681 32.861 58.653 60.638 100.242 0.35 0.51 1.38 2.009 3.074 1.193 1.202-0.579 1.55-1.688 1.022-3.338-15.258-47.873-33.354-96.939-50.888-144.387-3.449-9.385-6.924-18.751-10.406-28.289-12.398-36.24-14.561-62.571-6.439-78.256 3.748-7.255 9.835-12.33 17.559-14.648 8.668-2.859 17.219-2.179 25.427 1.993 30.631 15.584 51.153 79.978 71.001 142.258 13.233 41.573 25.742 80.828 39.306 99.715 0.817 1.142 1.694 1.142 2.13 1.040 0.664-0.187 1.030-0.682 1.149-1.6 4.36-33.995-6.821-85.785-15.804-127.373-3.763-17.371-7.307-33.804-9.308-46.887-0.383-2.181-0.962-4.869-1.592-7.834-4.377-20.607-11.003-51.741 4.454-67.782 5.662-5.894 13.48-8.857 23.281-8.857 3.168 0 6.559 0.308 10.151 0.953 9.674 1.671 24.583 14.255 31.788 31.304 7.22 17.081 32.316 106.205 43.283 153.633 4.522 19.5 7.382 37.691 11.88 55.674 4.743 19.142 9.682 38.88 13.658 64.589 7.946 24.83 19.688 53.153 36.164 48.273 0.784-0.231 3.031 0.221 5.655-5.306 6.676-14.11 4.691-34.214 2.597-55.513-3.789-38.385 10.652-87.417 40.756-99.459 0.255-0.101 0.493-0.187 0.747-0.289 0.563-0.222 1.142-0.458 1.721-0.648 18.086-6.676 30.689-2.248 38.098 2.673 14.697 9.76 20.624 28.851 21.237 43.463l0.053 1.464c0.356 20.523 0.833 40.603 1.295 60.18 2.247 97.118 4.14 178.295-7.512 235.322l-3.675 15.488z" />
<glyph unicode="&#xe911;" glyph-name="HomeSaved" d="M45.854 488.185l33.766-54.412 431.448 226.991 429.564-228.865 37.515 58.161-472.71 251.356zM282.207 649.504l-106.913-60.035v183.84h106.913zM509.191 630.747l-354.536-187.587v-317.014l705.308-3.454v322.342l-350.772 185.713zM739.925 231.193h-127.568v204.471h127.568v-204.471z" />
<glyph unicode="&#xe912;" glyph-name="Humanitarian" d="M809.023 419.059l132.179 141.571c0 0-48.226 121.765-69.89 148.749-28.483 35.472-67.663 48.917-98.564 50.76-27.677 1.651-130.037 0.345-172.926-3.815l-226.077-0.929c0 0-116.099 0.326-147.519-3.264-31.44-3.611-75.077-7.337-92.322-25.141s-51.107-191.366-51.107-191.366l20.494-170.567 57.368 3.264-4.11 167.303 29.23 89.614 3.553-322.761-28.676-321.744h102.444l53.277 364.38 61.477-377.114 102.444 3.348-49.167 662.654 108.712 9.994 5.985-33.766 12.024-60.015-25.197-569.643 97.546-3.264 58.521 376.912 50.72-364.416h97.549l-27.311 321.777-0.658 107.476zM864.533 568.487l-55.988-71.452-0.977 159.261 56.964-87.808zM376.417 849.524c0-40.754-33.053-73.808-73.808-73.808-40.775 0-73.808 33.053-73.808 73.808 0 40.775 33.035 73.808 73.808 73.808 40.753 0 73.808-33.035 73.808-73.808zM741.058 854.192c0-40.754-33.053-73.808-73.808-73.808-40.773 0-73.808 33.053-73.808 73.808s33.036 73.808 73.808 73.808c40.757 0 73.808-33.053 73.808-73.808z" />
<glyph unicode="&#xe913;" glyph-name="Hurricane" d="M541.286 729.568c-4.226 0-8.053 2.523-9.716 6.406-1.661 3.869-0.84 8.37 2.081 11.429 87.763 91.916 203.37 142.916 325.875 143.883-56.32 24.353-116.26 36.69-178.384 36.69-248.503 0-450.715-202.171-450.715-450.696 0-4.216-2.522-8.053-6.414-9.716-3.869-1.652-8.371-0.842-11.419 2.093-91.927 87.763-142.927 203.358-143.894 325.875-24.353-56.313-36.698-116.25-36.698-178.376 0-248.523 202.213-450.723 450.734-450.723 4.226 0 8.032-2.525 9.695-6.394 1.66-3.903 0.84-8.403-2.062-11.462-87.763-91.886-203.368-142.884-325.895-143.851 56.34-24.365 116.28-36.698 178.405-36.698 248.503 0 450.694 202.17 450.715 450.693 0 4.226 2.523 8.034 6.391 9.695 3.891 1.68 8.392 0.862 11.44-2.072 91.906-87.753 142.925-203.38 143.894-325.897 24.355 56.364 36.679 116.271 36.679 178.408 0.002 248.513-202.189 450.715-450.713 450.715zM512.010 318.928c-71.296 0-129.088 57.781-129.088 129.087 0 71.273 57.794 129.058 129.088 129.058 71.274 0 129.068-57.785 129.068-129.058 0-71.306-57.794-129.087-129.068-129.087z" />
<glyph unicode="&#xe914;" glyph-name="Laptop" d="M906.86 243.504v439.509c0 21.436-17.439 38.881-38.881 38.881h-711.965c-21.429 0-38.868-17.445-38.868-38.881v-439.509h-63.585v-46.061c0-12.855 10.474-23.337 23.336-23.337h870.213c12.862 0 23.329 10.481 23.329 23.337v46.061h-63.578zM162.259 666.705c0 5.564 4.511 10.074 10.074 10.074h679.337c5.551 0 10.061-4.51 10.061-10.074v-423.201h-699.473v423.201z" />
<glyph unicode="&#xe915;" glyph-name="LocalOp" d="M496.007 928.001c-180.623 0-327.083-146.45-327.083-327.085 0-180.638 305.842-632.915 327.083-632.915 38.231 0 327.072 452.278 327.072 632.915s-146.424 327.085-327.072 327.085zM496.007 438.784c-89.538 0-162.132 72.596-162.132 162.133s72.594 162.133 162.132 162.133c89.548 0 162.121-72.596 162.121-162.133s-72.572-162.133-162.121-162.133z" />
<glyph unicode="&#xe916;" glyph-name="Meals" d="M967.111 447.988c0-226.213-203.765-409.583-455.095-409.583-251.361 0-455.125 183.37-455.125 409.583h910.221zM379.264 857.593c-53.1-75.861-60.691-121.362-15.16-174.462 45.501-53.102 22.729-91.020-7.59-136.522 66.361 39.81 73.962 106.18 37.911 161.171-36.020 54.991-30.32 73.953-15.162 149.812zM510.106 857.593c-53.1-75.861-60.691-121.362-15.16-174.462 45.511-53.102 22.751-91.020-7.59-136.522 66.371 39.81 73.962 106.18 37.911 161.171-36.020 54.991-30.32 73.953-15.162 149.812zM640.946 857.593c-53.1-75.861-60.681-121.362-15.16-174.462 45.501-53.102 22.76-91.020-7.6-136.522 66.371 39.81 73.971 106.18 37.92 161.171-36.010 54.991-30.318 73.953-15.16 149.812z" />
<glyph unicode="&#xe917;" glyph-name="Medical" d="M357.553-32h308.893v325.544h325.544v308.894h-325.544v325.562h-308.893v-325.562h-325.544v-308.894h325.544z" />
<glyph unicode="&#xe918;" glyph-name="NatlOp" d="M991.211 747.39l-25.229-5.212c0 0 0-26.093-5.028-33.927-5.048-7.82-17.664-39.124-35.319-41.746-17.664-2.606-35.313-10.425-35.313-10.425l-20.171-33.927-37.837-23.473-15.131-26.093c0 0-22.69-26.093-32.787-26.093-10.099 0-37.84 5.211-35.305 13.045 2.518 7.821 17.642 26.093 17.642 26.093s-2.518 13.046-10.075 23.473c-7.566 10.44-13.882-14.342-13.882-14.342l-5.048 9.13 8.831 16.964-7.566 18.26-16.398 6.523-13.858-2.8c0 0-6.938-8.028-9.472-13.239-2.518-5.229-20.799-12.406-19.533-22.831 1.244-10.44 10.075-24.798 10.075-33.926 0-9.13-7.566-29.996-12.608-29.996-5.035 0-18.914 35.223-18.914 44.353s6.3 41.747 6.3 41.747c-6.3-2.592-16.398-10.44-16.398-10.44 7.566 14.358 22.712 31.307 30.278 36.534 7.56 5.213 39.088 3.65 46.661 2.338-6.307 5.229-26.487 15.921-26.487 15.921l-11.351 3.917c0 0-11.341-6.523-16.389-7.835-5.049-1.295-8.832 0-17.664 3.917s-20.174 6.524-20.174 6.524l-30.263-14.357-23.971 3.916c13.882 13.046 29.005 28.7 35.32 30.010-22.69 5.213-42.886 10.441-42.886 10.441s-1.252-4.186-26.473 2.338c-25.229 6.523-64.317 5.228-64.317 5.228s-114.76-1.31-181.587 9.13c-66.848 10.425-186.645 35.223-204.301 43.042 0 0-8.833 0-6.314-15.652 2.531-15.653-8.819-23.473-8.819-23.473s2.518 10.425-1.266 15.653c-3.784 5.211-10.097 7.82-13.872 10.425-3.784 2.636-11.349 10.44-11.349 10.44 0-15.653 6.314-44.352 0-54.793-6.3-10.44-16.398-45.663-21.446-54.794-5.027-9.128-18.908-22.175-18.908-27.389 0-5.229 7.566-30.012 3.784-35.223-3.784-5.229-16.398-15.653-16.398-19.571s5.048-22.176 5.048-22.176-5.048-16.963-3.782-20.88c1.252-3.916 5.034-28.697 8.817-31.306 3.798-2.606 13.88-5.212 13.88-5.212l-3.784-28.699c0 0 5.049-23.486 7.567-33.926 2.524-10.44 0-24.782 3.776-28.7 3.782-3.917 29.012-13.046 34.062-18.26 5.041-5.228 20.172-19.571 20.172-35.222s12.617-15.653 23.963-15.653c11.342 0 20.174 2.606 34.054-9.144 13.858-11.735 49.177-35.223 60.526-40.436s69.366-10.44 69.366-10.44l3.776 14.357 37.836-5.227 16.383-27.389c0 0 13.88-40.436 37.837-46.959 8.832 7.834 16.398 15.652 30.271 15.652 13.865 0 27.746-20.881 32.796-30.010 5.026-9.13 18.908-35.223 21.423-41.747 2.532-6.523 21.447-23.486 41.621-27.389-1.266 18.261 3.784 49.566 6.315 56.089 2.516 6.523 26.472 20.88 35.305 23.487 8.831 2.606 21.445 18.257 21.445 18.257s42.862 3.917 51.695 3.917c8.817 0 26.48-9.13 35.305-9.13 8.832 0 20.18-5.228 25.229-6.523 5.049-1.312 5.049 9.128-1.266 14.343-6.3 5.227-16.398 6.523-13.881 11.751 2.532 5.212 20.196 7.82 27.753 9.13 7.566 1.295 37.845 0 42.871 2.606 5.049 2.606 20.18-1.312 26.496-6.523 6.299-5.212 21.423 3.917 26.472 5.212 5.049 1.312 22.713-10.425 30.271-16.949 7.566-6.523 12.6-37.83 12.6-41.746s29.004-52.186 45.402-50.876c16.39 1.295 18.921 27.389 15.147 37.83-3.784 10.441-29.012 74.362-29.012 74.362s-7.566 50.876-3.784 60.006 30.263 56.089 30.263 56.089 40.354 36.534 42.886 41.747c2.518 5.242 2.518 39.139 2.518 39.139s-7.566 22.176-3.784 27.404c3.784 5.211 15.124 48.269 15.124 53.482s12.615 46.958 12.615 46.958l39.088 23.486c0 0-16.383 33.927-11.351 43.057 5.049 9.13 27.762 32.617 27.762 32.617s18.906 11.735 17.642 15.652c-1.267 3.902-22.69 23.472-22.69 23.472l-8.836 32.615z" />
<glyph unicode="&#xe919;" glyph-name="Saw" d="M651.336 423.947c-5.422-0.149-45.343 0.164-50.12 0.181-5.042 0.025-15.2 12.303-18.715 13.896l-8.954 2.838c0 0-23.674-2.293-26.191-3.481-2.542-1.163-0.059-9.093-0.059-9.093l0.091-2.92v-1.486c-7.947 0.067-46.458 0.033-51.243 0.067-5.033 0.016-14.044 11.661-17.56 13.27l-8.938 2.92c0 0-23.674-2.244-26.215-3.416-2.532-1.164-0.083-9.093-0.083-9.093l0.065-3.243-0.759-139.812v-0.033l6.139-0.287c5.197-1.955 46.475-0.404 51.252-0.519 5.042-0.141 13.657-10.629 17.123-12.304l8.838-3.465c0 0 23.766 1.775 26.334 2.888 2.549 1.114 0.371 9.093 0.371 9.093l-0.287 4.968c5.512-0.552 46.326-0.256 51.055-0.372 5.033-0.131 14.060-13.145 17.511-14.819l8.838-3.465c0 0 23.741 1.774 26.315 2.887 2.565 1.114 0.388 9.093 0.388 9.093l1.229 6.677c5.223-1.939 46.491-0.388 51.277-0.52 5.033-0.123 12.435-14.415 15.902-16.090l8.838-3.465c0 0 23.766 1.775 26.331 2.888 2.549 1.114 0.372 9.093 0.372 9.093l0.033 2.92 1.625 5.818c5.199-1.981 46.492-0.488 51.252-0.644 5.042-0.133 11.998-16.48 15.448-18.147l8.821-3.557c0 0 23.766 1.693 26.334 2.806 2.565 1.123 0.42 9.093 0.42 9.093l-5.273 11.157h0.545c6.016-2.145 26.289-2.385 33.427-2.097 5.035 0.19 22.256-17.189 26.208-17.85l17.882 3.838c0 0 21.628 7.913 23.576 9.629 1.922 1.751-3.515 8.674-3.515 8.674l-1.222 2.757c5.348-0.272 23.344 12.881 27.108 17.461 2.724 3.309 18.27 5.586 21.158 7.839l5.496 14.093c0 0 3.532 18.526 2.773 20.754-0.775 2.21-11.156 2.467-11.156 2.467l-3.599 0.726v0.016c3.243 3.359 1.948 21.9-7.161 31.77-2.822 3.061 4.174 15.059 3.391 18.187l-8.416 6.948c0 0-17.709 12.55-20.499 13.277-2.773 0.727-8.787-5.908-8.787-5.908l-2.774-1.964c-2.161 3.852-37.074 8.821-41.853 9.028-5.026 0.215-13.384 10.842-16.8 12.568l-8.739 3.886c0 0-23.799-1.387-26.398-2.467-2.583-1.081-0.61-9.068-0.61-9.068l-0.083-2.525-1.659-4.745c-5.051 0.858-16.709 0.223-24.624-0.239l-26.628-0.083c-5.174 1.502-12.657 14.952-15.868 16.413l-8.978 2.838c0 0-23.658-2.303-26.173-3.481-2.533-1.188-0.049-9.093-0.049-9.093l0.065-2.567 0.71-3.499c-5.644 1.726-46.326-0.287-51.037-0.287-5.035 0.017-14.854 13.822-18.369 15.431l-8.962 2.839c0 0-23.674-2.319-26.191-3.483-2.533-1.18-0.049-9.109-0.049-9.109l0.065-2.888v-2.404zM313.894 260.719c7.948 48.504 21.966 137.022 4.902 254.306-6.271 42.975-17.395 66.841 11.131 74.174 26.892 6.931 35.541-18.369 42.391-87.834 6.823-69.473 16.19-148.408-8.606-238.049-14.549-4.209-39.544-2.13-49.817-2.6zM309.677 482.008c3.416-27.33 9.886-138.63-10.613-220.63l-174.239-2.261-7.592 151.149 192.441 71.742zM390.529 470.62c7.98-51.243 12.171-109.024-8.334-192.152l39.072 5.39 3.416 154.87-34.154 31.893zM104.709 395.463l-89.581-25.804c-3.787-50.872-25.795-112.456 94.904-97.653l-0.759 29.615c-17.461-1.526-38.701-4.109-49.33 8.344-12.369 14.448-17.495 5.784-14.45 36.152l59.216 17.453v31.895z" />
<glyph unicode="&#xe91a;" glyph-name="SocialMediaFundraising" d="M533.304 470.355v81.295c19.223-4.104 37.658-12.491 55.69-25.559 1.348-0.968 3.226-0.606 4.080 0.817l21.055 35.356c0.742 1.257 0.416 2.892-0.757 3.741-22.962 16.656-48.036 27.255-78.365 30.996v39.745c0 1.561-1.256 2.817-2.809 2.817h-31.593c-1.552 0-2.809-1.256-2.809-2.817v-38.898c-53.479-4.27-89.849-35.507-89.849-81.718v-0.848c0-47.922 29.104-71.452 91.553-87.713v-83.854c-26.913 4.148-49.428 16.308-72.951 34.932-1.271 0.998-3.127 0.756-4.058-0.575l-24.113-34.298c-0.871-1.226-0.622-2.936 0.575-3.861 28.657-22.152 62.512-36.521 98.843-40.701v-39.958c0-1.561 1.257-2.816 2.809-2.816h31.593c1.553 0 2.809 1.256 2.809 2.816v39.534c54.343 4.709 91.137 35.946 91.137 82.581v0.848c-0.001 45.787-27.817 71.875-92.842 88.136zM499.5 479.335c-32.947 9.842-41.070 21.395-41.070 38.929v0.863c0 18.822 14.127 33.372 41.070 35.507v-75.298zM575.663 378.371c0-20.531-15.414-34.22-42.358-36.369v77.434c33.364-9.826 42.358-21.38 42.358-40.216v-0.848zM705.448 928h-386.897c-37.936 0-68.961-31.055-68.961-68.985v-822.032c0-37.942 31.024-68.983 68.961-68.983h386.897c37.92 0 68.961 31.041 68.961 68.983v822.032c0 37.929-31.042 68.985-68.961 68.985zM594.477 90.464c0-14.231-11.644-25.876-25.877-25.876h-113.198c-14.233 0-25.892 11.644-25.892 25.876v4.269c0 14.234 11.66 25.879 25.892 25.879h113.198c14.233 0 25.877-11.645 25.877-25.879v-4.269zM700.564 189.534h-377.143v659.337h377.144v-659.337z" />
<glyph unicode="&#xe91b;" glyph-name="Storm" d="M620.58 297.767h124.658l-239.992-329.768 87.774 237.688h-103.661l56.924 154.153h105.357l-31.061-62.073zM941.861 434.879c-27.721-18.72-67.317-28.225-117.724-28.225h-595.748c-128.365 0-193.454 40.847-193.454 121.414 0 81.401 65.819 151.755 156.532 167.279 3.215 0.541 5.785 3.006 6.441 6.212 16.53 80.178 84.286 138.39 161.040 138.39 9.324 0 18.626-0.834 27.683-2.466 2.874-0.521 5.786 0.56 7.616 2.854 44.614 55.711 112.111 87.662 185.194 87.662 122.409 0 225.036-92.29 233.668-210.090 0.303-4.21 3.84-7.396 8.080-7.341 0.965 0.020 1.981 0.020 2.949 0.020 90.942 0 164.926-79.145 164.926-176.461-0.004-44.691-15.898-78.104-47.208-99.251z" />
<glyph unicode="&#xe91c;" glyph-name="Tools" d="M293.648 708.835l-9.595 67.765-118.926 95.536-63.122-62.67 94.672-119.578 67.81-12.471zM764.27 265.496l-57.154-57.154-476.988 503.92 30.202 30.224zM773.357 656.248l21.358-21.127c8.202-8.103 16.361-0.132 22.308 5.683 2.719 2.654 5.263 5.141 7.385 5.959 3.471 1.337 7.827 1.039 11.651-0.817 3.914-1.924 6.7-5.164 7.937-9.164 1.57-5.207-1.968-12.271-5.748-19.766-5.572-11.054-11.895-23.59-2.234-33.142l29.561-29.251c2.144-2.134 4.664-3.283 7.385-3.737 12.712-2.178 29.582 10.768 30.532 11.542l68.185 68.936c0.795 1.073 19.434 25.858 7.297 37.884l-29.58 29.252c-9.661 9.551-22.132 3.095-33.12-2.61-7.429-3.847-14.437-7.517-19.7-5.98-4.024 1.183-7.295 3.969-9.242 7.86-1.901 3.78-2.254 8.147-0.951 11.663 0.774 2.101 3.251 4.687 5.859 7.429 5.748 6.014 13.641 14.26 5.439 22.364l-91.821 90.837c-0.995 0.829-102.366 84.105-243.755 56.909-0.066 0-0.11-0.022-0.178-0.044-2.278-0.774-5.327-2.080-5.483-4.643-0.243-4.112 6.876-7.739 22.993-15.509 27.195-13.121 72.719-35.11 83.861-73.061 11.785-40.161 38.449-66.626 38.713-66.87l7.518-7.451 63.829-63.147zM720.559 708.481l41.765-41.321zM316.797 211.063l-57.131 57.129 490.475 490.475 57.131-57.142zM976.608 47.85l-54.875-54.875c-11.098-11.144-29.251-11.144-40.349 0l-258.436 258.416c-11.098 11.098-11.098 29.273 0 40.349l54.875 54.876c11.1 11.12 29.251 11.12 40.349 0l258.436-258.439c11.1-11.1 11.1-29.23 0-40.329zM98.864-7.047l-54.875 54.876c-11.1 11.098-11.1 29.25 0 40.349l258.438 258.459c11.098 11.098 29.251 11.098 40.349 0l54.875-54.898c11.12-11.078 11.12-29.229 0-40.327l-258.439-258.461c-11.098-11.098-29.251-11.098-40.348 0z" />
<glyph unicode="&#xe91d;" glyph-name="Tornado" d="M541.478 892.999c-151.111 35.001-289.788 7.87-302.65-62.075-9.478-51.418-14.743-96.428-14.957-141.155 40.917-77.47 125.234-141.667 231.994-166.375 16.882-3.909 33.693-6.685 50.353-8.394-54.736-1.011-113.306 4.962-173.099 18.827-33.618 7.768-65.805 17.65-96.205 29.213 8.367-41.414 20.902-86.52 38.29-139.041 46.716-141.333 175.295-164.020 202.658-250.364 44.416 3.076 88.458 14.582 130.843 33.476-40.591-33.271-83.015-57.026-125.692-69.609-0.095-9.723-1.262-20.222-3.637-31.569-16.855-80.472-36.208-96.655-43.237-109.247-3.403-6.107-8.040-15.014-3.272-23.437 3.216-4.843 8.48-5.249 13.63-5.014 37.982 1.647 163.852 113.624 207.885 212.692 26.727 60.139 0.691 121.035-21.306 180.007-96.953-2.215-193.74 22.801-277.905 75.704 23.691-10.266 48.686-18.577 74.864-24.642 64.019-14.836 127.684-14.548 186.673-1.647-8.919 33.929-10.872 66.919 5.721 98.376 52.792 100.012 143.811 97.815 163.582 195.442 14.117 69.705-93.429 153.812-244.532 188.833zM675.33 729.8c-9.572-41.257-90.25-57.802-180.221-36.954-89.988 20.855-155.179 71.188-145.623 112.424 9.573 41.265 90.252 57.82 180.241 36.974 89.96-20.847 155.158-71.19 145.601-112.445z" />
<glyph unicode="&#xe91e;" glyph-name="VetWellness" d="M746.813 880.456c-119.809 0-218.738-88.339-235.886-203.369-17.148 115.028-116.056 203.369-235.884 203.369-131.876 0-239.766-106.904-238.802-238.801 1.457-198.029 259.187-455.779 473.231-626.111 192.219 165.983 471.792 439.745 476.146 626.111 3.108 131.854-106.903 238.801-238.801 238.801zM701.689 393.936h-122.872v-122.852h-134.321v122.852h-122.851v134.319h122.851v122.875h134.321v-122.875h122.872v-134.319z" />
<glyph unicode="&#xe91f;" glyph-name="twitter" d="M740.016 564.944c0.224-5.048 0.336-10.12 0.336-15.216 0-155.472-118.328-334.736-334.728-334.736-66.44 0-128.272 19.464-180.344 52.848 9.208-1.080 18.568-1.64 28.064-1.64 55.12 0 105.848 18.808 146.112 50.36-51.48 0.952-94.928 34.968-109.904 81.704 7.184-1.368 14.56-2.112 22.136-2.112 10.728 0 21.128 1.44 31 4.128-53.824 10.816-94.376 58.36-94.376 115.36 0 0.496 0 0.992 0.016 1.48 15.856-8.808 34-14.104 53.28-14.712-31.568 21.096-52.336 57.104-52.336 97.92 0 21.56 5.8 41.776 15.928 59.144 58.024-71.176 144.712-118.016 242.488-122.92-2 8.608-3.040 17.584-3.040 26.816 0 64.968 52.672 117.64 117.648 117.64 33.84 0 64.416-14.28 85.88-37.152 26.792 5.272 51.976 15.072 74.704 28.552-8.784-27.472-27.44-50.528-51.728-65.088 23.8 2.84 46.472 9.16 67.568 18.52-15.768-23.592-35.72-44.312-58.704-60.896v0zM0-64h1024v1024h-1024v-1024z" />
<glyph unicode="&#xe920;" glyph-name="twitter-old" d="M1024 733.6c-37.6-16.8-78.2-28-120.6-33 43.4 26 76.6 67.2 92.4 116.2-40.6-24-85.6-41.6-133.4-51-38.4 40.8-93 66.2-153.4 66.2-116 0-210-94-210-210 0-16.4 1.8-32.4 5.4-47.8-174.6 8.8-329.4 92.4-433 219.6-18-31-28.4-67.2-28.4-105.6 0-72.8 37-137.2 93.4-174.8-34.4 1-66.8 10.6-95.2 26.2 0-0.8 0-1.8 0-2.6 0-101.8 72.4-186.8 168.6-206-17.6-4.8-36.2-7.4-55.4-7.4-13.6 0-26.6 1.4-39.6 3.8 26.8-83.4 104.4-144.2 196.2-146-72-56.4-162.4-90-261-90-17 0-33.6 1-50.2 3 93.2-59.8 203.6-94.4 322.2-94.4 386.4 0 597.8 320.2 597.8 597.8 0 9.2-0.2 18.2-0.6 27.2 41 29.4 76.6 66.4 104.8 108.6z" />
<glyph unicode="&#xe921;" glyph-name="service-principles_accountability" d="M849.581 685.041l13.168 17.221 23.552-17.98c1.267-1.014 3.039-1.52 4.559-1.52h1.014c2.026 0.252 3.798 1.267 5.065 3.039l40.012 52.169c2.533 3.292 2.026 8.103-1.52 10.637 0 0 0 0 0 0l-116.747 89.143c-3.292 2.533-8.103 2.026-10.637-1.52 0 0 0 0 0 0l-40.012-52.422c-2.533-3.292-2.026-8.103 1.52-10.637 0 0 0 0 0 0l23.552-17.98-13.168-17.221c-50.649 31.15-107.632 51.157-166.637 58.5v22.538h41.532c4.306 0 7.597 3.292 7.597 7.597v104.085c0 4.306-3.292 7.597-7.597 7.597h-188.669c-4.306 0-7.597-3.292-7.597-7.597v-104.085c0-4.306 3.292-7.597 7.597-7.597h41.532v-22.538c-207.41-26.085-368.477-203.611-368.477-418.112 0-232.229 188.922-421.404 421.404-421.404s421.151 189.683 421.151 421.912c0.252 115.989-47.61 226.656-132.196 306.177zM560.624-27.349c-223.872 0-406.211 182.086-406.211 406.211s182.338 405.958 406.211 405.958 406.211-182.086 406.211-406.211-182.338-405.958-406.211-405.958zM843.249 378.609c0 4.306 3.292 7.597 7.597 7.597h46.851c-1.014 54.196-15.448 107.124-41.532 154.48l-40.52-23.299c-3.545-2.026-8.357-0.758-10.384 2.786s-0.758 8.357 2.786 10.384l40.52 23.299c-28.111 46.090-66.858 84.838-112.948 112.948l-23.299-40.52c-2.026-3.545-6.837-4.812-10.384-2.786s-4.812 6.837-2.786 10.384l23.299 40.52c-47.357 26.085-100.288 40.267-154.48 41.532v-46.851c0-4.306-3.292-7.597-7.597-7.597s-7.597 3.292-7.597 7.597v46.851c-54.196-1.014-107.124-15.448-154.48-41.532l23.299-40.52c2.026-3.545 0.758-8.357-2.786-10.384s-8.357-0.758-10.384 2.786l-23.299 40.52c-46.090-28.111-84.838-66.858-112.948-112.695l40.52-23.299c3.545-2.026 4.812-6.837 2.786-10.384s-6.837-4.812-10.384-2.786l-40.52 23.299c-26.085-47.357-40.267-100.288-41.532-154.48h46.851c4.306 0 7.597-3.292 7.597-7.597s-3.292-7.597-7.597-7.597h-46.598c1.014-54.196 15.448-107.124 41.532-154.48l40.52 23.299c3.545 2.026 8.357 0.758 10.384-2.786s0.758-8.357-2.786-10.384l-40.52-23.299c28.111-46.090 66.858-84.838 112.948-112.948l23.299 40.52c2.026 3.545 6.837 4.812 10.384 2.786s4.812-6.837 2.786-10.384l-23.299-40.52c47.357-26.085 100.288-40.267 154.48-41.532v46.851c0 4.306 3.292 7.597 7.597 7.597s7.597-3.292 7.597-7.597v-46.851c54.196 1.014 107.124 15.448 154.48 41.532l-23.299 40.52c-2.026 3.545-0.758 8.357 2.786 10.384s8.357 0.758 10.384-2.786l23.299-40.52c46.090 28.111 84.838 66.858 112.948 112.948l-40.52 23.299c-3.545 2.026-4.812 6.837-2.786 10.384s6.837 4.812 10.384 2.786l40.52-23.299c26.085 47.357 40.267 100.288 41.279 154.228h-46.851c-4.053 0-7.597 3.545-7.597 7.597zM732.834 465.221c0 0-101.806-103.073-140.299-125.105-34.189-19.754-66.858-19.246-83.066 8.865s-0.506 56.728 33.936 76.482c38.239 22.032 178.54 59.007 178.54 59.007 8.609 2.026 14.181 2.279 17.221-3.039 2.786-5.065-0.252-9.877-6.331-16.207z" />
<glyph unicode="&#xe922;" glyph-name="service-principles_collaborate" d="M706.725 565.536l281.347 216.751c2.39 1.896 3.907 4.798 3.907 8.057 0 2.827-1.146 5.39-2.996 7.246v0l-127.396 127.396c-1.856 1.856-4.42 3.004-7.252 3.004-3.287 0-6.213-1.546-8.090-3.949l-0.017-0.022-216.553-281.289-88.786 88.786v-254.79h254.619zM557.846 690.197l65.107-65.108c1.858-1.865 4.429-3.019 7.268-3.019 3.293 0 6.225 1.553 8.102 3.965l0.017 0.022 216.553 281.289 9.745-9.745-216.694-281.261-0.94-0.94c-4.33-4.324-10.308-6.998-16.911-6.998s-12.58 2.674-16.911 6.998v0l-41.8 41.8v-149.763h149.763l-41.8 41.8c-4.324 4.33-6.998 10.308-6.998 16.911s2.674 12.58 6.998 16.911v0l1.084 1.084 281.091 216.553 9.745-9.745-281.347-216.724c-2.398-1.895-3.923-4.803-3.923-8.069 0-2.836 1.15-5.404 3.012-7.261l65.194-65.050h-196.351zM177.713 924.072c-1.895 2.398-4.803 3.923-8.069 3.923-2.836 0-5.404-1.15-7.261-3.012v0l-127.396-127.396c-1.848-1.854-2.992-4.413-2.992-7.239 0-3.293 1.552-6.225 3.965-8.102l281.312-216.57-88.786-88.786h254.79v254.648l-88.786-88.786zM317.275 330.464l-281.347-216.751c-2.398-1.895-3.923-4.803-3.923-8.069 0-2.836 1.15-5.404 3.012-7.261v0l127.396-127.396c1.854-1.848 4.413-2.992 7.238-2.992h0.599c3.052 0.199 5.719 1.694 7.477 3.938l0.017 0.023 216.553 281.289 88.786-88.786v254.79h-254.619zM466.154 205.803l-65.108 65.108c-1.856 1.856-4.42 3.004-7.252 3.004-3.287 0-6.213-1.546-8.090-3.949l-0.017-0.023-216.553-281.289-9.745 9.745 216.694 281.261 0.912 0.912c4.33 4.324 10.308 6.998 16.911 6.998s12.58-2.674 16.911-6.998v0l41.8-41.8v149.734h-149.877l41.8-41.8c4.324-4.33 6.998-10.308 6.998-16.911s-2.674-12.58-6.998-16.911v0l-1.111-1.084-281.091-216.553-9.745 9.745 281.347 216.751c2.398 1.895 3.923 4.803 3.923 8.069 0 2.836-1.15 5.404-3.012 7.261v0l-65.050 65.079h196.407zM988.015 113.769l-281.289 216.553 88.786 88.786h-254.763v-254.619l88.786 88.786 216.751-281.347c1.774-2.242 4.431-3.72 7.437-3.903l0.029-0.002h0.599c2.826 0.002 5.382 1.144 7.237 2.992v0l127.396 127.396c1.856 1.856 3.004 4.42 3.004 7.253 0 3.287-1.546 6.213-3.949 8.090l-0.023 0.017z" />
<glyph unicode="&#xe923;" glyph-name="service-principles_impartiality" d="M704.508 369.022c-0.071-1.653-0.111-3.591-0.111-5.54 0-76.331 61.879-138.21 138.21-138.21s138.21 61.879 138.21 138.21c0 1.949-0.040 3.887-0.12 5.816l0.009-0.276zM43.194 369.022c-0.039-1.23-0.061-2.678-0.061-4.129 0-76.331 61.879-138.21 138.21-138.21s138.21 61.879 138.21 138.21c0 1.453-0.022 2.899-0.067 4.34l0.005-0.211zM536.138 92.75h-191.421l-31.615-62.96h397.799l-31.615 62.96h-143.147zM988.036 370.552v0c-0.113 0.502-0.257 0.938-0.438 1.355l0.018-0.047-136.804 310.973 20.484 48.374h-327.756v130.066c0 6.816-5.525 12.34-12.34 12.34v0h-38.403c-6.816 0-12.34-5.525-12.34-12.34v0-130.017h-327.706l20.484-48.374-136.804-310.973c-0.153-0.354-0.288-0.774-0.386-1.209l-0.009-0.049v-0.173c-0.094-0.443-0.148-0.951-0.148-1.473 0-0.010 0-0.022 0-0.033v0.002c3.153-77.926 67.091-139.904 145.503-139.904 78.429 0 142.378 62.005 145.494 139.67l0.009 0.283c0 0.009 0 0.020 0 0.032 0 0.522-0.054 1.031-0.157 1.522l0.009-0.047v0.173c-0.108 0.485-0.242 0.906-0.412 1.308l0.018-0.047-133.718 303.47h287.823v-41.735c-21.511-11.535-35.892-33.864-35.892-59.554s14.382-48.019 35.533-59.377l0.36-0.177v-414.433h-140.308l-39.069-77.793h421.838l-39.069 77.793h-140.308v414.483c21.511 11.535 35.892 33.864 35.892 59.554s-14.382 48.019-35.533 59.377l-0.36 0.177v41.686h287.823l-133.52-303.421c-0.163-0.369-0.308-0.805-0.409-1.258l-0.009-0.049c-0.094-0.443-0.148-0.951-0.148-1.473 0-0.010 0-0.022 0-0.033v0.002c3.141-77.936 67.083-139.929 145.504-139.929s142.363 61.992 145.494 139.644l0.009 0.284c-0.045 0.503-0.131 0.965-0.26 1.409l0.013-0.052zM495.267 858.805h33.442v-127.548h-33.442zM174.718 238.512l-2.171 0.173c-1.431 0-2.887 0.173-4.318 0.321l-2.468 0.321c-1.284 0.148-2.468 0.296-3.875 0.493l-2.69 0.469c-1.209 0.197-2.468 0.394-3.628 0.641l-2.739 0.618c-1.16 0.246-2.321 0.519-3.48 0.791l-2.739 0.739c-1.111 0.321-2.246 0.618-3.357 0.938l-2.715 0.889-3.258 1.086-2.666 1.012-3.159 1.234-2.64 1.136-3.060 1.382-2.468 1.258-2.986 1.505-2.468 1.382-2.887 1.655-2.468 1.505-2.788 1.776-2.468 1.605-2.69 1.901-2.295 1.727-2.591 2.023-2.221 1.826-2.468 2.148-2.121 1.924-2.468 2.246-2.049 2.023-4.22 4.591-2.171 2.468-1.852 2.197-2.049 2.468-1.753 2.295q-0.988 1.308-1.924 2.666l-1.629 2.468c-0.618 0.913-1.209 1.826-1.802 2.764l-1.53 2.468c-0.568 0.938-1.111 1.901-1.655 2.838s-0.963 1.678-1.406 2.468-1.037 1.95-1.53 2.912-0.889 1.727-1.308 2.591-0.938 2-1.382 3.011-0.815 1.776-1.185 2.666-0.84 2.049-1.258 3.086-0.716 1.802-1.061 2.715-0.739 2.098-1.111 3.159-0.641 1.852-0.938 2.788-0.641 2.148-0.963 3.234-0.542 1.875-0.791 2.813-0.542 2.197-0.791 3.307-0.469 1.901-0.667 2.863-0.444 2.246-0.641 3.382-0.37 1.924-0.519 2.912-0.321 2.295-0.469 3.455-0.272 1.95-0.37 2.936-0.222 2.468-0.321 3.53-0.173 1.95-0.246 2.936c0 0.124 0 0.272 0 0.394h260.995c0-0.124 0-0.272 0-0.394 0-0.988-0.148-1.974-0.246-2.936s-0.173-2.468-0.321-3.53-0.246-1.95-0.37-2.936-0.296-2.321-0.469-3.455-0.345-1.95-0.519-2.912-0.394-2.27-0.641-3.382-0.444-1.924-0.667-2.863-0.519-2.221-0.791-3.307-0.519-1.875-0.791-2.813-0.618-2.171-0.963-3.234-0.618-1.852-0.938-2.788-0.716-2.121-1.111-3.159-0.69-1.826-1.061-2.715-0.815-2.072-1.258-3.086-0.791-1.776-1.185-2.666-0.913-2-1.382-3.011-0.864-1.727-1.308-2.591-1.012-1.95-1.53-2.912-0.938-1.678-1.406-2.468-1.086-1.901-1.655-2.838l-1.53-2.468c-0.592-0.938-1.185-1.852-1.802-2.764l-1.629-2.468q-0.938-1.333-1.924-2.666l-1.753-2.295-2.049-2.468-1.852-2.197-2.171-2.468-4.22-4.591-2.049-2.023-2.468-2.246-2.121-1.924-2.468-2.148-2.221-1.826-2.591-2.023-2.295-1.727-2.69-1.901-2.468-1.605-2.788-1.776-2.468-1.505-2.887-1.655-2.468-1.382-2.986-1.505-2.468-1.258-3.060-1.382-2.64-1.136-3.159-1.234-2.666-1.012-3.258-1.086-2.715-0.889c-1.111-0.345-2.246-0.641-3.357-0.938l-2.739-0.739c-1.16-0.296-2.321-0.542-3.48-0.791l-2.739-0.618c-1.209-0.246-2.468-0.444-3.628-0.641l-2.69-0.469c-1.284-0.197-2.468-0.345-3.875-0.493l-2.468-0.321c-1.431-0.148-2.863-0.222-4.318-0.321l-2.171-0.173q-3.258-0.173-6.564-0.173t-6.54 0.173zM54.549 376.426l126.734 288.021 126.759-288.021zM698.906 37.195h-373.809l24.187 48.175h325.437zM528.609 100.178h-33.343v408.684c5.018-1.335 10.78-2.101 16.722-2.101s11.702 0.766 17.192 2.205l-0.471-0.104zM564.495 574.165c0-29.046-23.548-52.594-52.594-52.594s-52.594 23.548-52.594 52.594c0 29.046 23.548 52.594 52.594 52.594 0.034 0 0.069 0 0.104 0h-0.006c29.036-0.029 52.566-23.558 52.594-52.591v-0.003zM528.609 639.472c-5.018 1.335-10.78 2.101-16.722 2.101s-11.702-0.766-17.192-2.205l0.471 0.104v35.959h33.442zM969.451 376.426h-253.493l126.759 288.021zM836.177 238.489l-2.171 0.173c-1.431 0-2.887 0.173-4.318 0.321l-2.468 0.321c-1.284 0.148-2.468 0.296-3.851 0.493l-2.69 0.469c-1.209 0.197-2.468 0.394-3.628 0.641l-2.739 0.618c-1.16 0.246-2.321 0.519-3.455 0.791l-2.739 0.739c-1.111 0.321-2.246 0.618-3.357 0.938l-2.715 0.889-3.258 1.086-2.666 1.012-3.159 1.234-2.64 1.136-3.060 1.382-2.468 1.258-2.986 1.505-2.468 1.382-2.887 1.655-2.468 1.505-2.788 1.776-2.468 1.605-2.715 1.901-2.27 1.704-2.616 2.023-2.197 1.802-2.468 2.148-2.098 1.901-2.468 2.27-2 2-2.295 2.468-1.901 2.072-2.197 2.468-1.802 2.171-2.072 2.616-1.704 2.246q-1.012 1.357-1.974 2.715l-1.605 2.321c-0.618 0.938-1.234 1.875-1.826 2.813l-1.481 2.468c-0.592 0.963-1.16 1.95-1.704 2.912s-0.938 1.629-1.382 2.468-1.061 2-1.579 3.011-0.84 1.678-1.258 2.468-0.963 2.072-1.431 3.109-0.765 1.704-1.136 2.468-0.864 2.121-1.308 3.209-0.69 1.727-1.012 2.616-0.765 2.197-1.16 3.283-0.618 1.753-0.889 2.64-0.667 2.246-0.988 3.382-0.519 1.776-0.765 2.69-0.568 2.295-0.84 3.455-0.444 1.802-0.618 2.715-0.469 2.468-0.667 3.554-0.345 1.826-0.493 2.739-0.345 2.468-0.493 3.628-0.246 1.826-0.37 2.764-0.222 2.468-0.321 3.751-0.173 1.826-0.222 2.739c0 0.148 0 0.272 0 0.419h260.772c0-0.148 0-0.272 0-0.419 0-0.913-0.148-1.826-0.222-2.739s-0.197-2.468-0.321-3.751-0.246-1.826-0.37-2.764-0.321-2.468-0.493-3.628-0.321-1.826-0.493-2.739-0.419-2.468-0.667-3.554-0.419-1.802-0.618-2.715-0.542-2.321-0.84-3.455-0.493-1.802-0.765-2.69-0.641-2.27-0.988-3.382-0.592-1.776-0.889-2.64-0.739-2.197-1.16-3.283-0.667-1.753-1.012-2.616-0.84-2.148-1.284-3.209-0.739-1.704-1.136-2.468-0.938-2.072-1.431-3.109-0.84-1.678-1.258-2.468-1.037-2.023-1.579-3.011-0.913-1.629-1.382-2.468-1.136-1.95-1.704-2.912l-1.481-2.468c-0.592-0.938-1.209-1.901-1.826-2.813l-1.605-2.321q-0.963-1.382-1.974-2.715l-1.704-2.246-2.072-2.616-1.802-2.171-2.197-2.468-1.901-2.072-2.295-2.468-2-2-2.468-2.27-2.098-1.901-2.468-2.148-2.197-1.802-2.616-2.023-2.27-1.704-2.715-1.901-2.468-1.605-2.788-1.776-2.468-1.505-2.887-1.655-2.468-1.382-2.986-1.505-2.468-1.258-3.060-1.382-2.64-1.136-3.159-1.234-2.666-1.012-3.258-1.086-2.715-0.889c-1.111-0.345-2.221-0.641-3.357-0.938l-2.739-0.739c-1.136-0.296-2.295-0.542-3.455-0.791l-2.739-0.618c-1.209-0.246-2.468-0.444-3.628-0.641l-2.69-0.469c-1.284-0.197-2.468-0.345-3.851-0.493l-2.468-0.321c-1.431-0.148-2.863-0.222-4.318-0.321l-2.171-0.173q-3.258-0.173-6.564-0.173t-6.737 0.197z" />
<glyph unicode="&#xe924;" glyph-name="service-principles_innovation" d="M547.783 635.602l146.1 292.397h-251.019l-180.966-489.906h175.444l-169.327-458.778c-0.338-0.873-0.535-1.882-0.535-2.937 0-3.178 1.783-5.942 4.403-7.343l0.045-0.023c1.153-0.634 2.525-1.011 3.985-1.015h0.002c2.765 0.008 5.212 1.363 6.718 3.443l0.017 0.024 483.343 664.136zM458.637 452.853h-175.369l169.946 460.264h216.723l-146.1-292.397h212.96l-16.763-23.030h-233.561l146.1 292.397h-163.433l-152.761-414.205h175.444l-143.822-389.419-49.848-68.495z" />
<glyph unicode="&#xe925;" glyph-name="service-principles_tenacity" d="M250.872 276.442c196.479-182.647 242.759-206.235 260.885-206.235h0.191c18.263 0 64.542 23.588 261.074 206.288 41.931 39.703 45.41 79.732 45.41 120.66v459.593h-612.997v-459.593c0-40.926 3.478-80.956 45.438-120.713zM520.099 840.439h282.054v-322.791h-282.054zM221.739 501.345h282.054v-412.823c-23.397 9.349-85.712 54.758-241.862 199.821-33.889 32.067-40.3 62.993-40.3 108.702zM133.719 928v-584.79c0.051-36.617 15.556-69.602 40.339-92.792l0.070-0.066c11.168-10.409 24.458-22.854 38.997-36.605 165.389-155.634 267.298-245.747 298.821-245.747v0c31.47 0 133.404 90.113 298.929 245.747 14.621 13.75 27.829 26.17 38.997 36.605 24.852 23.257 40.355 56.242 40.409 92.849v584.799zM873.869 343.212c-0.077-31.928-13.627-60.674-35.264-80.869l-0.064-0.059c-11.197-10.435-24.458-22.883-39.052-36.659-47.964-45.112-113.62-106.908-170.281-156.177-88.319-76.798-111.419-85.115-117.398-85.115v0c-5.869 0-29.023 8.342-117.316 85.115-56.661 49.269-122.29 111.066-170.281 156.177-14.648 13.778-27.883 26.224-39.078 36.659-21.703 20.253-35.254 49.001-35.328 80.916v568.497h724.064z" />
<glyph unicode="&#xe926;" glyph-name="filter-sliders" d="M981.333 405.333h-304.64c-19.337-74.173-85.725-128.035-164.693-128.035s-145.356 53.862-164.431 126.852l-0.262 1.183h-304.64c-23.564 0-42.667 19.103-42.667 42.667s19.103 42.667 42.667 42.667v0h304.64c19.337 74.173 85.725 128.035 164.693 128.035s145.356-53.862 164.431-126.852l0.262-1.183h304.64c23.564 0 42.667-19.103 42.667-42.667s-19.103-42.667-42.667-42.667v0zM512 533.333c-47.128 0-85.333-38.205-85.333-85.333s38.205-85.333 85.333-85.333c47.128 0 85.333 38.205 85.333 85.333v0c0 47.128-38.205 85.333-85.333 85.333v0zM981.333 746.667h-48.64c-19.337-74.173-85.725-128.035-164.693-128.035s-145.356 53.862-164.431 126.852l-0.262 1.183h-560.64c-23.564 0-42.667 19.103-42.667 42.667s19.103 42.667 42.667 42.667v0h560.64c19.337 74.173 85.725 128.035 164.693 128.035s145.356-53.862 164.431-126.852l0.262-1.183h48.64c23.564 0 42.667-19.103 42.667-42.667s-19.103-42.667-42.667-42.667v0zM768 874.667c-47.128 0-85.333-38.205-85.333-85.333s38.205-85.333 85.333-85.333c47.128 0 85.333 38.205 85.333 85.333v0c0 47.128-38.205 85.333-85.333 85.333v0zM42.667 149.333h48.64c19.337 74.173 85.725 128.035 164.693 128.035s145.356-53.862 164.431-126.852l0.262-1.183h560.64c23.564 0 42.667-19.103 42.667-42.667s-19.103-42.667-42.667-42.667v0h-560.64c-19.337-74.173-85.725-128.035-164.693-128.035s-145.356 53.862-164.431 126.852l-0.262 1.183h-48.64c-23.564 0-42.667 19.103-42.667 42.667s19.103 42.667 42.667 42.667v0zM256 21.333c47.128 0 85.333 38.205 85.333 85.333s-38.205 85.333-85.333 85.333c-47.128 0-85.333-38.205-85.333-85.333v0c0-47.128 38.205-85.333 85.333-85.333v0z" />
<glyph unicode="&#xe927;" glyph-name="filter-grid" d="M938.667-64h-256c-47.128 0-85.333 38.205-85.333 85.333v0 256c0 47.128 38.205 85.333 85.333 85.333v0h256c47.128 0 85.333-38.205 85.333-85.333v0-256c0-47.128-38.205-85.333-85.333-85.333v0zM938.667 277.333h-256v-256h256v256zM938.667 533.333h-256c-47.128 0-85.333 38.205-85.333 85.333v0 256c0 47.128 38.205 85.333 85.333 85.333v0h256c47.128 0 85.333-38.205 85.333-85.333v0-256c0-47.128-38.205-85.333-85.333-85.333v0zM938.667 874.667h-256v-256h256v256zM341.333-64h-256c-47.128 0-85.333 38.205-85.333 85.333v0 256c0 47.128 38.205 85.333 85.333 85.333v0h256c47.128 0 85.333-38.205 85.333-85.333v0-256c0-47.128-38.205-85.333-85.333-85.333v0zM341.333 277.333h-256v-256h256v256zM341.333 533.333h-256c-47.128 0-85.333 38.205-85.333 85.333v0 256c0 47.128 38.205 85.333 85.333 85.333v0h256c47.128 0 85.333-38.205 85.333-85.333v0-256c0-47.128-38.205-85.333-85.333-85.333v0zM341.333 874.667h-256v-256h256v256z" />
<glyph unicode="&#xe928;" glyph-name="CHFP_Capstone" d="M437.441 375.772h148.73v-35.652h-148.73v35.652zM363.124 425.511h297.266v-35.652h-297.266v35.652zM363.124 188.767h222.949v-15.349h-222.949v15.349zM811.743 879.861h-599.68c-4.372 0-7.675-3.303-7.675-7.675v-848.267c0-4.372 3.303-7.675 7.675-7.675h476.305c0 0 0 0 0.291 0 0.486 0 1.069 0 1.263 0.291 0.291 0 0.291 0 0.486 0.291 0.291 0 0.486 0.291 0.777 0.291s0.291 0.291 0.486 0.291 0.486 0.291 0.777 0.486 0.777 0.486 1.263 1.069l123.375 123.375c0.291 0.291 0.486 0.777 0.777 1.069l0.291 0.291c0.291 0.291 0.291 0.486 0.486 1.069 0 0 0 0.291 0.291 0.291 0.291 0.486 0.291 0.777 0.486 1.263v0c0 0.486 0 1.069 0.291 1.263 0 0 0 0 0 0.291v724.609c-0.291 4.080-3.594 7.675-7.966 7.675zM680.694 147.285v-115.701h-460.956v832.832h584.331v-709.454h-115.701c-4.080 0-7.675-3.594-7.675-7.675zM694.974 489.724c1.263 2.331 1.263 5.343 0 7.675l-176.514 292.117c-1.263 2.331-3.886 3.594-6.703 3.594s-5.149-1.263-6.703-3.594l-176.514-292.117c-1.554-2.331-1.554-5.343 0-7.675s3.886-3.886 6.703-3.886h352.93c2.817 0 5.343 1.554 6.703 3.886zM511.855 770.766l61.785-102.391c-28.464-5.635-46.727 3.886-64.116 13.114-13.601 7.189-27.492 14.378-44.104 12.823l46.435 76.454zM-838.843-1482.274h2697.031v-139.635h-2697.031v139.635zM363.124 281.638h297.266v-15.349h-297.266v15.349z" />
<glyph unicode="&#xe929;" glyph-name="CHFP_Mentorship" d="M758.671 912.763l-11.271 11.271-24.697-24.697 12.083-12.083-12.348-12.348 25.227-25.227 10.476 10.476c0.265 3.763-0.812 7.791-1.872 11.536-1.608 6.448-3.498 13.161 1.343 18.249 8.321 9.928 5.901 14.222 1.078 22.807zM771.832 924.299l-10.193-10.193c4.293-6.713 8.85-16.377 1.078-25.227-4.558-5.105-1.343-12.348 1.872-19.327 2.686-5.901 5.105-11.271 3.498-16.112l3.763-3.763 24.697 24.697-12.083 12.083 12.348 12.348-24.962 25.492zM321.964 401.964c-0.265 0-0.265 0-0.53 0-7.243 0.53-12.879 10.193-12.879 21.2s5.37 18.796 10.74 20.669c0.265 0 0.265 0.265 0.53 0.265 72.75 27.382 116.226 90.45 116.226 168.835 0 101.192-82.413 183.869-183.869 183.869s-183.869-82.413-183.869-183.869c0-78.385 43.476-141.453 116.226-168.835 0.265 0 0.265-0.265 0.53-0.265 5.37-2.155 10.74-9.928 10.74-20.669 0-11.006-5.901-20.669-12.879-21.2-0.265 0-0.265 0-0.53 0-73.544-5.635-157.565-25.227-157.565-125.623 0-41.869 27.648-131.789 30.333-140.375l20.139-122.674c0.53-3.215 2.951-5.901 6.166-6.448 5.37-1.343 131.524-30.597 170.708-30.597s168.023 29.52 173.658 30.597c3.215 0.812 5.635 3.498 6.166 6.713l17.454 122.392c2.951 9.133 30.333 98.506 30.333 140.11-0.265 100.661-84.286 120.253-157.83 125.889zM433.897 140.239c0-0.53-0.265-0.812-0.265-1.343l-16.642-117.569c-25.227-5.635-131.524-28.99-164.543-28.99s-137.159 23.355-161.857 28.99l-19.327 117.833c0 0.265-0.265 0.812-0.265 1.078-0.265 1.078-29.803 95.556-29.803 136.083 0 69.252 42.947 102.004 143.343 109.513 0.265 0 0.53 0 0.812 0 15.299 1.872 26.835 17.72 26.835 37.31 0 16.112-8.056 30.333-20.404 35.438-0.265 0-0.53 0.265-0.812 0.265-66.566 24.962-106.297 82.413-106.297 154.067 0 92.34 75.152 167.758 167.758 167.758 92.34 0 167.758-75.152 167.758-167.758 0-71.671-39.731-129.105-106.297-154.067-0.265 0-0.53-0.265-0.812-0.265-12.083-5.105-20.404-19.327-20.404-35.438 0-19.592 11.536-35.155 26.835-37.31 0.265 0 0.53 0 0.812 0 100.396-7.509 143.343-40.526 143.343-109.513-0.265-40.526-29.52-135.022-29.803-136.083zM833.293 419.947c-0.265 0-0.265 0-0.53 0-7.791 0.812-14.222 11.006-14.222 22.807s5.901 20.139 11.536 22.277c0.265 0 0.265 0.265 0.53 0.265 76.759 28.99 122.392 95.291 122.392 177.969 0 6.166-0.265 12.348-0.812 18.249 7.243 1.608 12.614 8.056 12.614 15.829 0 22.807-6.448 44.554-18.796 64.694-3.763 19.061-4.823 43.476-6.166 67.378-2.155 42.133-4.027 68.721-13.956 79.727-11.536 12.879-49.66 33.283-114.071 61.196-21.747 9.399-49.13 9.133-52.344 9.133s-30.597 0.53-52.344-9.133c-64.146-27.913-102.535-48.582-114.071-61.196-9.928-11.271-11.819-37.576-13.956-79.727-1.343-23.884-2.42-48.317-6.166-67.378-12.348-19.857-18.796-41.869-18.796-64.694 0-7.791 5.37-14.222 12.614-15.829-0.53-5.901-0.812-12.083-0.812-18.249 0-82.678 45.631-148.979 122.392-177.969 0.265 0 0.265-0.265 0.53-0.265 5.901-2.155 11.536-10.74 11.536-22.277 0-11.819-6.448-22.277-14.222-22.807-0.265 0-0.265 0-0.53 0-77.307-5.901-165.885-26.57-165.885-132.054 0-44.024 29.256-139.033 31.94-148.166l21.482-129.387c0.53-2.686 2.155-4.823 4.293-5.901 5.635-2.686 139.58-68.439 181.996-68.439s179.029 65.488 184.947 68.439c2.42 1.078 4.027 3.498 4.558 6.166l18.249 129.387c2.951 9.399 31.94 104.142 31.94 147.901 0 105.484-88.578 126.154-165.885 132.054zM595.206 808.885c1.343 27.913 3.215 62.273 9.928 69.781 5.635 6.166 27.117 22.012 108.435 57.167 19.327 8.321 45.366 7.791 45.631 7.791s0.265 0 0.53 0 26.305 0.812 45.631-7.791c81.335-35.438 102.8-51.003 108.435-57.167 6.713-7.509 8.586-42.133 9.928-69.781 0.812-13.956 1.343-28.178 2.686-41.604-6.978 7.243-14.769 14.222-23.619 20.669-38.388 27.913-89.391 43.211-143.343 43.211s-104.69-15.299-143.343-43.211c-8.85-6.448-16.642-13.161-23.619-20.669 1.343 13.426 2.155 27.382 2.686 41.604zM759.484 815.051c104.407 0 189.24-61.461 189.24-137.425h-9.928c0 0-6.448 20.404-9.399 24.15-24.433 31.675-85.362 80.522-169.648 80.522s-145.215-48.846-169.648-80.522c-2.951-3.763-9.399-24.15-9.399-24.15h-10.193c-0.265 75.965 84.55 137.425 188.975 137.425z" />
<glyph unicode="&#xe92a;" glyph-name="CHFP_Self-Discovery" d="M632.558 478.262c-5.145-2.696-126.438-63.709-158.537-92.868-0.49-0.49-1.225-0.981-1.715-1.47-4.166-3.921-8.086-8.086-11.517-12.252-35.53-40.921-93.113-130.604-95.809-134.525-3.185-5.391-10.047-16.173-1.715-25.484 3.43-3.921 7.351-5.145 11.271-5.145 5.636 0 11.026 2.696 14.212 4.166 3.921 1.96 98.994 49.987 143.591 81.106 4.411 2.941 9.066 6.371 13.232 10.047 0.49 0.49 1.225 0.981 1.715 1.47 32.099 28.914 105.611 143.345 108.796 148.247 3.185 5.391 10.047 16.173 1.715 25.484-7.841 9.801-19.603 4.166-25.239 1.225zM536.258 313.354c-0.245-0.245-0.245-0.245-0.49-0.245-2.941-2.451-6.615-5.391-10.781-8.33-0.245-0.245-0.49-0.245-0.49-0.49l-0.245-0.245c-43.617-30.629-140.896-79.636-141.875-80.127-5.881-2.941-7.596-2.941-7.841-2.696 0 0 0 0-0.245 0.245s-0.245 0.245-0.245 0.245v0c0 0.49 0 1.96 3.43 7.596 0 0.245 2.205 3.43 5.881 9.066v0c0.49 0.981 1.225 1.96 1.96 2.941v0c0.734 0.981 1.225 1.96 1.96 3.185 0 0.245 0.245 0.245 0.245 0.49 1.47 2.205 3.185 4.656 4.9 7.351v0c0.981 1.225 1.715 2.696 2.696 4.166 0 0 0 0 0 0.245 20.337 30.629 53.662 78.901 76.45 105.365l0.245 0.245c0.245 0.245 0.245 0.245 0.49 0.49 3.43 3.921 6.615 7.351 9.556 10.047l0.245 0.245c0.49 0.49 0.981 0.981 1.47 1.225l53.907-60.034c-0.245 0-0.734-0.49-1.225-0.981zM562.723 748.291v27.933c28.669 17.397 48.027 49.007 48.027 84.782 0 54.643-44.351 98.994-98.994 98.994s-98.994-44.351-98.994-98.994c0-36.021 19.358-67.63 48.027-84.782v-27.933c-200.684-25.239-356.527-197.009-356.527-404.552 0-224.697 182.796-407.738 407.738-407.738s407.738 182.796 407.738 407.738c-0.49 207.545-156.333 379.315-357.016 404.552zM511.51 904.623c24.014 0 43.617-19.603 43.617-43.617s-19.603-43.617-43.617-43.617-43.617 19.603-43.617 43.617 19.603 43.617 43.617 43.617zM743.314 336.632h94.338c-3.921-174.22-144.815-315.114-318.791-318.791v94.338c0 4.166-3.185 7.351-7.351 7.351s-7.351-3.185-7.351-7.351v-94.338c-174.22 3.921-315.114 144.815-318.791 318.791h94.338c4.166 0 7.351 3.185 7.351 7.351s-3.185 7.351-7.351 7.351h-94.338c3.921 174.22 144.815 315.114 318.791 318.791v-94.338c0-4.166 3.185-7.351 7.351-7.351s7.351 3.185 7.351 7.351v94.338c174.22-3.921 315.114-144.815 318.791-318.791h-94.338c-4.166 0-7.351-3.185-7.351-7.351s3.185-7.351 7.351-7.351z" />
<glyph unicode="&#xe92b;" glyph-name="Department_Comms" d="M506.679 476.075c35.997 40.751 24.224 59.769 4.754 92.822l-46.863 46.637-100.973-100.973 46.863-46.863-47.543-47.543 102.558-102.558 44.375 44.375c3.17 40.751-30.337 83.313-3.17 114.104zM558.976 616.44l-44.375-44.375c22.413-33.281 32.375-65.429 6.34-94.86-33.959-38.487 34.639-101.199 19.018-139.234l19.696-19.696 101.199 100.973-46.863 46.863 47.543 47.543-102.558 102.784zM941.813 231.113v478.376c0 23.319-19.018 42.336-42.336 42.336h-774.729c-23.319 0-42.336-19.018-42.336-42.336v-478.376h-69.277v-61.58c0-14.036 11.32-25.356 25.356-25.356h947.016c14.036 0 25.356 11.32 25.356 25.356v61.58h-69.051zM131.54 691.831c0 6.112 4.982 10.868 10.868 10.868h739.411c6.112 0 10.868-4.982 10.868-10.868v-460.49h-761.144v460.49z" />
<glyph unicode="&#xe92c;" glyph-name="General_House" d="M511.998 829.919l-224.78-122.157v155.393h-133.527v-227.987l-134.693-73.177 49.854-69.387 67.93 36.151v-495.914h750.43v495.914l67.93-36.151 49.854 69.387-492.999 267.927zM171.183 845.664h98.542v-147.521l-98.542-53.353v200.872zM276.432 318.554v174.635h174.635v-174.635h-174.635zM747.565 50.336h-174.635v442.853h174.635v-442.853zM949.895 515.345l-437.897 232.067-437.897-232.067-29.446 40.816 467.343 253.641 467.343-253.641-29.446-40.816z" />
<glyph unicode="&#xe92d;" glyph-name="General_Birthday-Cake" d="M149.731 296.791l102.75-344.791h519.038l102.75 344.791zM797.207 298.644c-1.060 5.032-29.395 121.021-92.42 135.319-41.575 9.533-64.35 3.441-75.736-2.118-9.003 15.625-34.162 46.343-92.951 52.963v175.044c20.657 8.21 48.726 27.542 55.083 72.295 5.032 36.015-11.652 63.556-28.865 92.951-17.478 29.395-37.34 62.496-41.84 111.753-0.265 3.972-3.707 7.15-7.945 7.15s-7.415-3.178-7.945-7.15c-4.767-49.257-24.628-82.621-41.84-111.753-17.478-29.395-33.896-56.937-28.865-92.951 6.092-44.753 34.162-64.085 55.083-72.295v-175.044c-58.79-6.62-83.946-37.34-92.951-52.963-11.387 5.56-34.162 11.652-75.736 2.118-63.291-14.3-91.361-130.554-92.42-135.319-0.528-2.383 0-4.767 1.588-6.885 1.588-1.853 3.707-2.913 6.355-2.913h554.79c2.383 0 4.767 1.060 6.355 2.913 0.265 1.853 0.793 4.502 0.265 6.885zM448.975 734.266c-4.238 30.455 9.533 53.493 27.010 82.621 12.977 21.715 27.277 45.813 36.28 76.796 9.003-30.983 23.303-54.817 36.28-76.796 17.478-29.13 30.983-52.17 27.010-82.621-7.945-56.671-56.671-63.822-63.025-64.615-6.885 0.793-55.877 7.945-63.556 64.615zM245.064 304.734c3.178 10.858 9.003 29.395 18.008 48.461 12.182 26.482 32.573 59.055 60.113 65.41 52.698 11.917 69.381-3.707 69.381-3.707 1.853-2.118 4.767-2.913 7.415-2.383s5.032 2.383 5.827 5.032c0.265 0.528 19.862 52.698 106.191 52.698 85.8 0 105.396-50.58 106.191-52.698 1.060-2.648 3.178-4.767 5.827-5.297s5.56 0.265 7.415 2.383c0.265 0.265 16.948 15.89 69.647 3.972 27.277-6.092 47.666-38.928 59.848-65.145 9.003-19.066 14.83-37.868 18.008-48.726h-533.868z" />
<glyph unicode="&#xe92e;" glyph-name="Department_Finance" d="M493.169 315.331v-53.353c0-1.997 1.712-3.709 3.709-3.709h42.226c1.997 0 3.709 1.712 3.709 3.709v52.782c72.469 6.277 121.543 47.932 121.543 110.129v1.142c0 61.057-37.090 95.863-123.825 117.547v108.417c25.678-5.421 50.214-16.547 74.181-33.951 1.712-1.427 4.279-0.855 5.421 1.142l27.961 47.077c0.855 1.712 0.57 3.709-1.142 4.851-30.527 22.255-63.91 36.234-104.423 41.369v53.068c0 1.997-1.712 3.709-3.709 3.709h-42.226c-1.997 0-3.709-1.712-3.709-3.709v-52.212c-71.327-5.705-119.831-47.362-119.831-108.989v-1.142c0-63.91 38.802-95.293 122.113-116.977v-111.841c-35.948 5.421-65.906 21.683-97.291 46.505-1.712 1.427-4.279 1.142-5.421-0.855l-32.239-45.65c-1.142-1.712-0.855-3.994 0.855-5.135 38.518-29.388 83.595-48.502 132.099-53.923zM540.531 475.389c44.509-13.124 56.491-28.531 56.491-53.638v-1.142c0-27.389-20.543-45.65-56.491-48.502v103.282zM440.673 607.203v1.142c0 25.106 18.831 44.509 54.779 47.362v-100.43c-43.938 13.124-54.779 28.531-54.779 51.926zM909.152 951.857h-794.303v-613.987c0-36.806 15.407-72.469 42.511-97.576 11.698-10.842 25.678-23.967 41.084-38.518 173.753-163.482 280.746-257.92 313.555-257.92v0c33.097 0 140.086 94.723 313.84 257.92 15.407 14.55 29.101 27.389 41.084 38.518 26.819 25.106 42.511 60.77 42.511 97.576l-0.285 613.987zM207.29 394.647v465.341h609.423v-465.341c0-48.217-6.847-80.457-42.226-114.125-188.304-175.18-246.794-211.985-262.485-211.985v0c-15.692 0-73.896 36.806-262.199 211.985-35.664 33.667-42.511 65.906-42.511 114.125z" />
<glyph unicode="&#xe92f;" glyph-name="Department_Logistics" d="M957.679 709.153h49.119v199.098h-989.598v-199.098h49.119v-522.305h-49.119v-199.098h989.598v199.098h-49.119v522.305zM339.426 709.153h598.606v-467.619l-598.606 467.619zM684.572 186.517h-598.606v467.619l598.606-467.619z" />
<glyph unicode="&#xe930;" glyph-name="Department_Membership" d="M1007.748 643.155c-1.387 1.156-141.281 114.227-191.225 152.379-42.316 32.372-151.455 54.339-196.312 62.432l-6.243 1.156-1.619-6.243c-12.256-45.321-53.644-77.23-100.584-77.23-47.17 0-88.561 31.678-100.584 77.23l-1.619 6.243-6.243-1.156c-44.858-7.861-153.997-30.060-196.312-62.432-49.715-38.154-189.837-151.222-191.225-152.379l-6.012-4.856 137.119-138.737 79.774 68.906v-531.593h570.669v531.593l79.774-68.906 137.119 138.737-6.475 4.856zM437.079 656.336h171.34v-43.008h-171.34v43.008zM437.079 599.453h267.993v-43.008h-267.993v43.008zM383.665 664.892l37.69-37.228-18.498-18.498 18.268-18.268-36.997-36.997-5.781 5.781c2.081 6.937-1.387 15.261-5.319 23.817-4.624 10.405-9.481 21.043-2.775 28.672 11.561 13.18 4.856 27.747-1.619 37.69l15.030 15.030zM310.135 627.663l36.997 36.997 17.111-17.111c7.399-12.487 11.099-18.96-1.849-33.76-6.937-8.094-4.394-17.804-1.849-27.516 1.387-5.781 3.006-11.561 2.775-17.111l-15.723-15.723-37.459 37.459 18.498 18.498-18.498 18.268zM707.616 406.841h-397.711v104.746h397.711v-104.746z" />
<glyph unicode="&#xe932;" glyph-name="Department_Planning" d="M656.962 389.42l-28.248-28.547-28.547 28.547-14.571-14.868 28.248-28.248-28.248-28.248 14.571-14.868 28.547 28.248 28.248-28.248 14.868 14.868-28.547 28.248 28.547 28.248zM437.211 588.651l28.248 28.547 28.248-28.547 14.868 14.868-28.248 28.248 28.248 28.248-14.868 14.868-28.248-28.248-28.248 28.248-14.868-14.868 28.547-28.248-28.547-28.248zM342.947 386.151l28.248 28.248 28.547-28.248 14.571 14.571-28.248 28.248 28.248 28.547-14.571 14.571-28.547-28.248-28.248 28.248-14.571-14.571 28.248-28.547-28.248-28.248zM832.108 838.734h-155.52l-1.19 15.463c-0.297 4.46-4.163 8.328-8.921 8.328h-46.982c-9.218 0-17.545 6.243-19.924 14.868-10.705 39.251-46.685 66.609-87.722 66.609-40.739 0-76.721-27.358-87.424-66.609-2.379-8.921-10.705-14.868-19.924-14.868h-46.982c-4.758 0-8.624-3.568-8.921-8.328l-1.19-15.463h-155.52c-14.868 0-26.763-11.893-26.763-26.763v-833.207c0-14.868 11.893-26.763 26.763-26.763h640.219c14.868 0 26.763 11.893 26.763 26.763v833.207c0 14.868-12.192 26.763-26.763 26.763zM788.988 62.025h-554.283v722.588h107.943l-2.974-35.089c-0.297-2.379 0.593-5.055 2.379-6.84s4.163-2.974 6.542-2.974h326.207c2.379 0 4.758 1.19 6.542 2.974s2.379 4.163 2.379 6.84l-2.974 35.089h107.943v-722.588h0.297zM601.057 609.766c-5.353-2.080-8.029-8.029-5.947-13.38s8.029-8.029 13.38-5.947l53.227 21.111c-2.379-5.947-6.542-13.677-12.787-22.599-12.192-17.247-35.385-41.929-77.907-61.256-72.556-33.305-80.882-74.34-92.478-131.136-3.271-15.761-6.84-33.898-12.192-53.526-8.029-29.142-27.951-55.013-47.28-74.043-5.353 4.46-11.3 8.029-18.138 10.705-14.868 5.353-30.926 4.758-45.2-2.080-14.274-6.542-25.276-18.437-30.629-33.305s-4.758-30.926 2.080-45.2c6.542-14.274 18.437-25.276 33.305-30.629 6.542-2.379 13.38-3.568 20.221-3.568 8.624 0 16.95 1.784 24.979 5.65 14.274 6.542 25.276 18.437 30.629 33.305s4.758 30.926-2.080 45.2c-0.593 1.19-1.19 2.379-2.080 3.568 21.708 21.411 44.605 50.551 54.119 85.045 5.65 20.518 9.218 38.657 12.49 55.013 11.3 56.5 17.842 87.424 80.882 116.566 60.364 27.655 87.127 65.419 98.128 88.317l6.243-53.822c0.593-5.353 5.055-9.218 10.408-9.218 0.297 0 0.892 0 1.19 0 5.65 0.593 9.813 5.947 9.218 11.597l-10.408 87.424c-0.297 3.271-2.080 5.947-5.055 7.73-2.676 1.784-6.243 1.784-9.218 0.593l-79.098-32.114zM416.991 210.408c-3.568-9.516-10.408-17.247-19.924-21.708-9.218-4.46-19.626-4.758-29.142-1.19s-17.247 10.408-21.708 19.924c-4.46 9.218-4.758 19.626-1.19 29.142s10.408 17.247 19.924 21.708c5.055 2.379 10.705 3.568 16.058 3.568 4.46 0 8.921-0.892 13.084-2.379 9.516-3.568 17.247-10.408 21.708-19.924 4.46-8.921 4.758-19.327 1.19-29.142z" />
<glyph unicode="&#xe933;" glyph-name="Department_Tech" d="M771.25 623.114c0 46.302-37.821 84.122-84.122 84.122v-13.755c19.485 0 36.904-8.022 49.741-20.631 12.837-12.837 20.631-30.256 20.631-49.741v0h13.755zM791.422 727.407c27.966-27.966 43.322-64.87 43.322-104.292h13.755c0 43.093-16.734 83.662-47.218 114.15-15.129 15.129-33.007 27.049-52.261 35.070s-40.342 12.15-61.658 12.15v0-13.755c39.195 0 76.33-15.357 104.063-43.322zM809.761 623.114c0 32.779-12.837 63.721-35.986 86.873-11.689 11.689-24.984 20.631-39.883 26.589-14.67 6.19-30.714 9.399-46.99 9.169v-13.755c29.11 0 56.389-11.232 77.015-31.861s31.861-47.907 31.861-77.015h13.983zM714.635 417.28l-81.143-81.143-30.714 30.714 81.143 81.143-81.143 81.143 25.215 25.215c36.675-34.612 80.225-53.406 116.669-53.406 22.003 0 41.26 6.648 55.24 20.631l4.813 4.813-91.687 91.687 0.228 0.228c11.689 11.689 14.211 27.966 5.502 36.447-8.481 8.481-24.984 5.958-36.447-5.502l-0.228-0.228-91.687 91.687-4.813-4.813c-19.024-19.024-25.443-48.364-17.88-82.288 6.876-30.945 24.754-62.575 50.426-89.852l-25.215-25.215-80.914 81.371-81.143-81.143-30.714 30.714 81.143 81.143-285.374 285.374-171.912-171.912 285.374-285.374 81.143 81.143 30.714-30.714-81.143-81.143 81.143-81.143-30.714-30.714-81.143 81.143-36.447-36.447 171.912-171.912 36.447 36.447-81.143 81.143 30.714 30.714 81.143-81.143 81.143 81.143 30.714-30.714-81.143-81.143 285.374-285.374 171.912 171.912-285.374 285.374zM581.232 656.81c-5.958 26.131-2.523 48.823 9.627 64.409l194.376-194.376c-34.842-26.817-101.312-9.169-152.427 41.946-26.589 26.361-44.926 57.533-51.574 88.019zM43.494 764.080l152.427 152.427 265.889-265.889-21.775-21.775-244.114 243.886-108.648-108.648 244.114-244.114-21.775-21.775-266.117 265.889zM512.009 295.567l-152.427 152.427 152.427 152.427 152.427-152.427-152.427-152.427zM562.206 245.368l21.775 21.775 244.114-244.114 108.648 108.648-244.114 244.114 21.775 21.775 265.889-265.889-152.427-152.427-265.661 266.117z" />
<glyph unicode="&#xe934;" glyph-name="Department_Training" d="M515.204 852.927c-4.193-4.682-1.233-11.339 1.727-17.751 2.466-5.426 4.682-10.355 3.204-14.791l3.45-3.45 22.68 22.68-11.092 11.092 11.339 11.339-23.175 23.175-9.37-9.37c4.193-5.915 8.379-14.791 1.233-22.928zM501.153 816.936l9.612 9.612c0.247 3.45-0.737 7.148-1.727 10.603-1.48 5.915-3.204 12.080 1.233 16.765 8.137 9.123 5.673 13.068 1.233 20.711l-10.355 10.355-22.68-22.68 11.092-11.092-11.339-11.339 22.928-22.928zM874.153 364.795c-0.247 0-0.247 0-0.494 0-3.45 0.247-7.148 5.426-7.148 12.819 0 6.657 3.204 11.339 6.162 12.572 0 0 0.247 0 0.494 0.247 50.538 19.231 80.861 63.11 80.861 117.594 0 70.51-57.444 127.949-127.949 127.949s-127.949-57.444-127.949-127.949c0-54.483 30.076-98.368 80.861-117.594 0.247 0 0.247 0 0.494-0.247 2.96-1.233 6.162-5.915 6.162-12.572 0-7.148-3.697-12.325-7.148-12.819 0 0-0.247 0-0.494 0-18.982-1.48-38.949-4.193-56.458-10.845-24.408 51.523-86.038 63.853-141.754 68.288-0.247 0-0.247 0-0.494 0-7.148 0.737-13.068 10.108-13.068 20.956s5.426 18.487 10.603 20.462c0.247 0 0.247 0 0.494 0.247 70.51 26.624 112.421 87.518 112.421 163.449 0 5.673-0.247 11.339-0.737 16.765 6.657 1.48 11.588 7.395 11.588 14.548 0 20.956-5.915 41.173-17.255 59.413-3.45 17.502-4.438 39.94-5.673 61.877-1.97 38.707-3.697 63.11-12.819 73.218-10.603 11.835-45.608 30.57-104.779 56.211-19.968 8.628-45.116 8.379-48.072 8.379s-28.105 0.494-48.072-8.379c-58.924-25.641-94.176-44.622-104.779-56.211-9.123-10.355-10.845-34.516-12.819-73.218-1.233-21.942-2.217-44.375-5.673-61.877-11.339-18.245-17.255-38.46-17.255-59.413 0-7.148 4.93-13.068 11.588-14.548-0.494-5.426-0.737-11.092-0.737-16.765 0-75.931 41.91-136.824 112.421-163.449 0.247 0 0.247-0.247 0.494-0.247 5.426-1.97 10.603-9.859 10.603-20.462 0-10.845-5.915-20.215-13.068-20.956-0.247 0-0.247 0-0.494 0-55.467-4.193-117.351-16.765-141.754-68.288-17.502 6.657-37.474 9.37-56.458 10.845-0.247 0-0.247 0-0.494 0-3.45 0.247-7.148 5.426-7.148 12.819 0 6.657 3.204 11.339 6.162 12.572 0.247 0 0.247 0 0.494 0.247 50.538 19.231 80.861 63.11 80.861 117.594 0 70.51-57.444 127.949-127.949 127.949s-127.949-57.444-127.949-127.949c0-54.483 30.076-98.368 80.861-117.594 0 0 0.247 0 0.494-0.247 2.96-1.233 6.162-5.915 6.162-12.572 0-7.148-3.697-12.325-7.148-12.819 0 0-0.247 0-0.494 0-51.281-3.946-109.709-17.502-109.709-88.014 0-28.598 18.735-89.983 20.711-96.64l13.805-83.821c0.494-2.96 2.713-5.426 5.673-5.915 3.697-0.737 90.231-21.2 117.594-21.2 27.121 0 115.624 20.215 119.321 21.2 2.96 0.737 5.177 3.204 5.673 6.162l4.438 30.57 13.314-81.108c0.494-2.466 1.97-4.438 3.946-5.426 5.177-2.466 128.196-62.868 167.148-62.868s164.439 60.155 169.858 62.868c2.217 0.986 3.697 3.204 4.193 5.673l11.588 82.093 5.177-32.050c0.494-2.96 2.713-5.426 5.673-5.915 3.697-0.737 90.231-21.2 117.594-21.2 27.121 0 115.624 20.215 119.321 21.2 2.96 0.737 5.177 3.204 5.673 6.162l11.835 83.821c2.217 6.906 20.711 68.041 20.711 96.64 0.494 70.263-57.933 83.821-109.212 87.765zM361.369 779.215c1.233 25.641 2.96 57.195 9.123 64.101 5.177 5.673 24.897 20.215 99.6 52.512 17.751 7.643 41.662 7.148 41.91 7.148h0.494c0.247 0 24.16 0.737 41.91-7.148 74.698-32.54 94.423-46.841 99.6-52.512 6.162-6.906 7.89-38.707 9.123-64.101 0.737-12.819 1.233-25.888 2.466-38.213-6.41 6.657-13.558 13.068-21.695 18.735-35.5 25.888-82.093 40.182-131.646 40.182s-96.146-14.052-131.646-39.693c-8.137-5.915-15.285-12.080-21.695-18.735 1.233 12.080 1.727 24.897 2.466 37.718zM512.246 785.135c95.904 0 173.804-56.458 173.804-126.226h-9.37c0 0-5.915 18.735-8.628 22.19-22.433 29.090-78.395 73.96-155.806 73.96s-133.373-44.87-155.806-73.96c-2.713-3.45-8.628-22.19-8.628-22.19h-9.37c0 69.52 77.906 126.226 173.804 126.226zM309.594 103.473c-19.231-4.438-89.245-19.722-111.187-19.722s-90.478 15.285-109.212 19.722l-13.068 79.628c0 0.247-0.247 0.737-0.247 0.986-0.247 0.737-20.215 65.333-20.215 92.696 0 46.841 27.857 68.041 96.64 73.218 0.247 0 0.494 0 0.737 0 11.339 1.48 19.968 13.068 19.968 27.363 0 11.835-5.915 22.19-15.038 26.13-0.247 0-0.494 0.247-0.737 0.247-44.87 16.765-71.743 55.467-71.743 103.788 0 62.373 50.785 113.158 113.158 113.158s113.158-50.785 113.158-113.158c0-48.321-26.873-87.028-71.743-103.788-0.247 0-0.494-0.247-0.737-0.247-9.123-3.697-15.038-14.3-15.038-26.13 0-14.3 8.628-25.888 19.968-27.363 0.247 0 0.494 0 0.737 0 21.448-1.727 38.949-4.93 52.757-9.859-3.45-11.339-5.426-24.408-5.426-39.446 0-35.005 19.968-104.779 27.121-128.443l-9.859-68.783zM948.851 184.090c0-0.494-0.247-0.737-0.247-1.233l-11.339-79.386c-19.231-4.438-89.245-19.722-111.187-19.722s-90.478 15.285-109.461 19.722l-11.339 69.275c7.148 24.16 26.873 93.191 26.873 127.949 0 14.791-1.97 27.857-5.426 39.446 13.805 5.177 31.307 8.379 52.757 9.859 0.247 0 0.494 0 0.737 0 11.339 1.48 19.968 13.068 19.968 27.363 0 11.835-5.915 22.19-15.038 26.13-0.247 0-0.494 0.247-0.737 0.247-44.87 16.765-71.743 55.467-71.743 103.788 0 62.373 50.785 113.158 113.158 113.158s113.158-50.785 113.158-113.158c0-48.321-26.873-87.028-71.743-103.788-0.247 0-0.494-0.247-0.737-0.247-9.123-3.697-15.038-14.3-15.038-26.13 0-14.3 8.628-25.888 19.968-27.363 0.247 0 0.494 0 0.737 0 68.536-5.177 96.393-26.377 96.393-73.218 0.494-27.363-19.478-91.958-19.722-92.696z" />
<glyph unicode="&#xe936;" glyph-name="General_Airplane-Drop" d="M995.624 516.751c-2.158 11.377-12.947 20.402-33.151 27.659-12.162 4.317-20.402 13.535-30.012 24.324-20.989 23.342-47.079 52.178-126.914 48.255-16.477-0.391-42.174-1.176-72.97-1.962-0.588 7.258-1.57 15.103-2.746 22.951-0.197 1.373-1.373 2.55-2.943 2.55s-2.746-0.982-2.943-2.55c-1.373-8.043-2.158-16.085-2.746-23.342-32.955-0.982-70.617-2.158-108.868-3.531-6.669 8.434-13.339 15.888-18.438 21.382-1.176 1.373-2.353 2.55-3.335 3.726-8.043 9.024-33.151 9.613-47.47 9.219-36.093-1.176-55.12-9.613-60.221-16.281-6.472-8.239-12.359-15.103-19.616-22.951-45.706-1.57-77.287-2.55-79.051-2.746-0.391 0-3.531 0-8.631-0.197-8.239 2.746-62.181 20.205-126.914 22.362-36.681 1.176-48.059 39.427-57.868 72.97-7.258 24.519-13.535 45.901-30.405 45.901h-33.151c-14.321 0-24.715-11.966-37.663-75.129-4.708-19.811-12.359-57.67-15.103-70.812-5.099 0-9.219 0-12.162 0.197-25.501 0.391-34.917-11.574-35.504-23.146-0.588-13.535 11.377-28.836 30.209-30.012 9.219-0.588 17.85-1.176 25.697-1.764 60.614-3.923 88.271-5.689 179.877-46.882 43.547-19.616 79.837-35.897 116.321-47.863l-192.038-65.321 4.511-12.947 210.281 71.597c37.858-10.396 77.678-16.281 127.503-16.281 5.493 0 11.18 0 17.067 0.197 124.363 3.138 239.9 8.239 301.103 11.574 75.129 4.119 107.495 24.519 131.426 45.706 13.339 11.966 19.029 22.755 16.87 33.151zM720.22 602.863c0-0.391 0-0.588 0-0.982-0.588-9.613-0.785-19.223-0.982-29.032h-7.454c0 0.391 0 0.588 0 0.982-0.785 5.884-3.726 11.18-8.827 14.908-18.831 13.731-63.163 7.258-77.287 4.708-1.373 2.158-2.943 4.317-4.511 6.472 34.72 0.982 68.851 1.962 99.059 2.943zM638.619 566.183v0.785l-0.197 0.785c-1.57 4.708-3.726 9.613-6.472 14.515 18.634 2.943 51.589 5.689 63.949-3.335 2.55-1.764 3.923-3.923 4.119-6.472 0.982-11.377 0.197-24.519 0-28.050-1.373-2.353-13.731-18.047-89.644-11.377-31.385 2.746-37.466 9.613-38.448 12.359 34.131 1.373 55.513 5.689 63.358 13.339 3.138 3.335 3.531 6.278 3.335 7.454zM463.448 589.134c11.574 12.162 19.811 20.989 28.836 32.758 3.726 4.905 24.519 10.789 51.392 11.769 2.353 0 4.708 0.197 6.866 0.197 19.42 0 29.423-3.138 31.385-5.296 0.982-1.176 2.158-2.353 3.335-3.726 11.769-13.142 33.346-37.074 41.194-58.062-4.905-3.531-31.385-15.694-162.222-6.081-16.085 1.176-18.047 4.905-18.047 5.296-0.391 1.176 0.588 5.099 7.061 12.359 3.531 3.726 7.061 7.454 10.2 10.789zM971.104 492.427c-22.362-19.811-52.963-38.839-124.363-42.762-61.005-3.335-176.542-8.434-300.905-11.574-116.714-2.943-177.523 24.519-278.152 69.635-93.567 42.174-123.775 43.938-183.995 47.863-7.845 0.588-16.477 0.982-25.697 1.764-11.769 0.785-19.616 10.004-19.223 17.85 0.391 7.454 8.631 11.769 22.166 11.769 0.391 0 0.982 0 1.373 0 43.938-0.982 319.541 4.708 322.483 4.905v0c0.982 0 27.463 0.982 67.282 2.353-2.353-2.55-4.905-5.099-7.454-8.043-3.335-3.531-13.535-14.515-9.416-24.715 3.923-9.807 18.047-11.966 28.247-12.75 33.346-2.55 62.378-3.726 86.506-3.726 3.531 0 6.866 0 10.2 0 0-0.588 0.197-1.176 0.197-1.57 2.746-12.359 18.438-19.42 49.236-22.166 13.142-1.176 24.519-1.57 34.523-1.57 60.221 0 67.086 18.243 67.871 22.362v0.588c0 0.391 0.588 7.454 0.588 16.281h6.866c0.197-9.807 0.391-19.616 0.982-29.032 0.588-9.807 1.57-22.951 3.726-36.093 0.197-1.373 1.373-2.55 2.943-2.55s2.746 0.982 2.943 2.55c2.158 13.142 3.138 26.286 3.726 36.093 0.588 9.416 0.785 19.223 0.982 29.032h0.588c3.726 0 6.866 3.138 6.866 6.866s-3.138 6.866-6.866 6.866h-0.588c-0.197 9.807-0.391 19.616-0.982 29.032v0c0 0.391 0 0.982 0 1.373 30.6 0.982 56.297 1.57 72.579 1.962 55.709 2.746 82.583-10.789 101.021-27.265-31.189-7.258-72.185-5.884-72.185-5.884l8.434-28.639c0 0 52.963-3.726 86.897 10.396 8.043-8.631 16.674-16.281 28.443-20.596 15.497-5.689 24.324-12.162 25.697-18.831 0.982-7.061-6.866-15.694-13.535-21.774zM414.605 389.641c-37.663 0-68.459-30.6-68.459-68.459 0-0.391 0-0.785 0.197-0.982 0-0.197 0-0.197 0-0.391s0.197-0.391 0.197-0.588c0-0.197 0-0.197 0.197-0.391 0-0.197 0.197-0.391 0.391-0.588 0-0.197 0.197-0.197 0.197-0.391 0 0 0 0 0-0.197l55.709-75.913h-40.016v-90.232h103.376v90.232h-40.016l55.709 75.913c0 0 0 0 0 0.197 0 0 0.197 0.197 0.197 0.391 0.197 0.197 0.197 0.391 0.391 0.588 0 0.197 0.197 0.197 0.197 0.391s0.197 0.391 0.197 0.588c0 0.197 0 0.197 0 0.391 0 0.391 0.197 0.785 0.197 0.982-0.197 37.663-30.796 68.459-68.656 68.459zM414.605 245.856l-50.805 69.439h101.806l-51.001-69.439z" />
<glyph unicode="&#xe937;" glyph-name="General_Airplane" d="M997.432 379.283c-2.166 11.42-12.996 20.477-33.274 27.762-12.207 4.332-20.477 13.585-30.125 24.414-21.067 23.43-47.254 52.373-127.388 48.435-16.539-0.393-42.332-1.182-73.244-1.969-0.59 7.285-1.575 15.16-2.756 23.036-0.197 1.378-1.378 2.56-2.953 2.56s-2.756-0.985-2.953-2.56c-1.378-8.073-2.166-16.145-2.756-23.43-33.078-0.985-70.881-2.166-109.275-3.545-6.694 8.466-13.389 15.948-18.508 21.462-1.182 1.378-2.363 2.56-3.347 3.741-8.073 9.057-33.274 9.648-47.648 9.254-36.228-1.182-55.326-9.648-60.446-16.341-6.497-8.27-12.404-15.16-19.689-23.036-45.876-1.575-77.575-2.56-79.348-2.756-0.393 0-3.545 0-8.663-0.197-8.27 2.756-62.414 20.28-127.388 22.445-36.819 1.182-48.239 39.575-58.084 73.244-7.285 24.611-13.585 46.073-30.518 46.073h-33.274c-14.374 0-24.808-12.011-37.803-75.41-4.726-19.886-12.404-57.885-15.16-71.077-5.119 0-9.254 0-12.207 0.197-25.596 0.393-35.047-11.617-35.637-23.233-0.59-13.585 11.42-28.944 30.322-30.125 9.254-0.59 17.917-1.182 25.792-1.771 60.84-3.938 88.601-5.71 180.549-47.057 97.658-43.907 158.301-71.275 267.378-71.275 5.513 0 11.222 0 17.13 0.197 124.829 3.15 240.798 8.27 302.229 11.617 75.41 4.134 107.896 24.611 131.917 45.876 13.585 12.207 19.295 23.036 17.13 33.471zM720.998 465.718c0-0.393 0-0.59 0-0.985-0.59-9.648-0.788-19.295-0.985-29.14h-7.482c0 0.393 0 0.59 0 0.985-0.788 5.907-3.741 11.222-8.86 14.963-18.901 13.782-63.399 7.285-77.575 4.726-1.378 2.166-2.953 4.332-4.528 6.497 34.85 0.985 69.109 1.969 99.43 2.953zM639.091 428.9v0.788l-0.197 0.788c-1.575 4.726-3.741 9.648-6.497 14.57 18.704 2.953 51.782 5.71 64.187-3.347 2.56-1.771 3.938-3.938 4.134-6.497 0.985-11.42 0.197-24.611 0-28.155-1.378-2.363-13.782-18.115-89.98-11.42-31.503 2.756-37.606 9.648-38.591 12.404 34.259 1.378 55.721 5.71 63.596 13.389 3.15 3.347 3.545 6.301 3.347 7.482zM463.267 451.936c11.617 12.207 19.886 21.067 28.944 32.881 3.741 4.923 24.611 10.829 51.585 11.814 2.363 0 4.726 0.197 6.891 0.197 19.493 0 29.533-3.15 31.503-5.316 0.985-1.182 2.166-2.363 3.347-3.741 11.814-13.192 33.471-37.212 41.347-58.28-4.923-3.545-31.503-15.752-162.828-6.104-16.145 1.182-18.115 4.923-18.115 5.316-0.393 1.182 0.59 5.119 7.088 12.404 3.545 3.741 7.088 7.482 10.238 10.829zM972.821 354.868c-22.445-19.886-53.161-38.984-124.829-42.922-61.233-3.347-177.202-8.466-302.031-11.617-117.15-2.953-178.187 24.611-279.192 69.896-93.917 42.332-124.238 44.103-184.684 48.041-7.875 0.59-16.539 0.985-25.792 1.771-11.814 0.788-19.689 10.042-19.295 17.917 0.393 7.482 8.663 11.814 22.249 11.814 0.393 0 0.985 0 1.378 0 44.103-0.985 320.736 4.726 323.689 4.923v0c0.985 0 27.566 0.985 67.534 2.363-2.363-2.56-4.923-5.119-7.482-8.073-3.347-3.545-13.585-14.57-9.451-24.808 3.938-9.844 18.115-12.011 28.352-12.798 33.471-2.56 62.611-3.741 86.829-3.741 3.545 0 6.891 0 10.238 0 0-0.59 0.197-1.182 0.197-1.575 2.756-12.404 18.508-19.493 49.419-22.249 13.192-1.182 24.611-1.575 34.652-1.575 60.446 0 67.337 18.311 68.124 22.445v0.59c0 0.393 0.59 7.482 0.59 16.341h6.891c0.197-9.844 0.393-19.689 0.985-29.14 0.59-9.844 1.575-23.036 3.741-36.228 0.197-1.378 1.378-2.56 2.953-2.56s2.756 0.985 2.953 2.56c2.166 13.192 3.15 26.384 3.741 36.228 0.59 9.451 0.788 19.295 0.985 29.14h0.59c3.741 0 6.891 3.15 6.891 6.891s-3.15 6.891-6.891 6.891h-0.59c-0.197 9.844-0.393 19.689-0.985 29.14v0c0 0.393 0 0.985 0 1.378 30.715 0.985 56.507 1.575 72.85 1.969 55.917 2.756 82.891-10.829 101.399-27.368-31.306-7.285-72.455-5.907-72.455-5.907l8.466-28.747c0 0 53.161-3.741 87.222 10.436 8.073-8.663 16.737-16.341 28.548-20.674 15.555-5.71 24.414-12.207 25.792-18.901 0.985-7.088-6.891-15.752-13.585-21.855z" />
<glyph unicode="&#xe93e;" glyph-name="General_Debris-Removal" d="M244.557 933.4l-183.984-121.19 26.876-41.085 183.984 121.19-26.876 41.085zM501.148 130.287c2.068-2.325 4.134-4.651 6.461-6.975 25.839 16.795 54.779 29.458 88.63 25.325 37.984-4.651 70.543-22.479 104.134-35.401 13.176 36.177 23.516 91.475-2.842 146.255l-83.979 140.831c-0.259 0.775-1.292 0.775-1.809 0.259l-70.543-55.038 1.55-2.325c0 0 48.063-50.906 53.229-89.407 0-1.033-0.259-1.809-1.033-2.325l-43.671-28.94c-0.775-0.517-1.809-0.517-2.583 0-33.333 19.637-60.981 83.979-60.981 83.979l-1.292 2.068-80.879-44.445c-0.775-0.259-0.775-1.292-0.517-1.809l96.127-132.041zM326.467 674.224l-44.704 67.959c-7.235-8.011-16.536-15.764-27.907-23.257s-22.224-12.921-32.3-16.536l44.704-67.959 60.209 39.794zM948.184 10.648c-7.235 28.94-27.648 77.521-83.723 77.521-13.954 0-29.718-3.101-46.254-9.044-17.573-6.202-34.627-9.303-51.937-9.303-35.918 0-66.928 13.176-97.16 26.098-24.806 10.595-48.577 20.674-74.936 23.775-3.618 0.517-7.494 0.775-11.112 0.775-39.019 0-71.321-25.067-102.584-49.096-19.637-14.986-37.984-29.458-56.847-35.918-10.076-3.618-20.929-5.425-32.041-5.425-39.019 0-74.936 22.224-92.767 35.401-0.259 0-0.775 0.259-1.809 0.259-9.562 0-30.749-13.954-40.311-35.142-7.235-16.022-5.684-30.232 4.651-42.377 14.213-16.536 57.625-27.907 105.43-27.907 13.176 0 25.067 1.033 34.883 2.583 12.145 2.068 25.839 7.752 39.019 13.176 18.345 7.494 37.21 15.246 54.779 15.246 13.696 0 25.58-4.651 34.883-13.696s29.718-14.472 54.265-14.472c27.131 0 55.816 6.461 73.385 16.795 26.617 15.505 65.119 25.067 100.261 25.067 21.188 0 40.311-3.36 55.298-10.076 14.472-6.202 46.772-12.921 78.295-12.921 27.39 0 47.546 5.169 54.524 13.954 1.809 2.325 3.875 6.202 1.809 14.727zM969.632 30.546c-9.82 39.535-29.718 68.22-57.625 82.947-27.907 14.986-62.018 15.246-101.551 1.033-2.068-0.775-4.134-1.55-6.202-2.068-0.517-0.259-1.033-0.259-1.55-0.517-2.068-0.517-3.875-1.033-5.943-1.55 0 0-0.259 0-0.259 0-2.068-0.517-4.134-1.033-5.943-1.292-0.517 0-1.033-0.259-1.55-0.259-1.809-0.259-3.618-0.775-5.425-0.775-0.259 0-0.259 0-0.517 0-2.068-0.259-3.875-0.517-5.943-0.775-0.517 0-0.775 0-1.292 0-1.809-0.259-3.618-0.259-5.169-0.259-0.259 0-0.517 0-0.517 0-1.809 0-3.875 0-5.684 0-0.517 0-0.775 0-1.292 0-1.809 0-3.36 0-5.169 0.259-0.259 0-0.259 0-0.517 0-1.809 0-3.875 0.259-5.684 0.517-0.259 0-0.775 0-1.033 0-1.809 0.259-3.36 0.517-5.169 0.775-0.259 0-0.259 0-0.517 0-1.809 0.259-3.618 0.517-5.684 1.033-0.259 0-0.517 0-0.775 0.259-1.809 0.259-3.36 0.775-5.169 1.033-0.259 0-0.259 0-0.517 0-1.809 0.517-3.875 1.033-5.684 1.55-0.259 0-0.259 0-0.517 0-1.809 0.517-3.618 1.033-5.425 1.55 0 0-0.259 0-0.259 0-3.875 1.292-7.752 2.583-11.626 3.875v0c12.404 37.469 20.156 91.217-5.684 144.963l-84.238 141.344c-1.292 2.325-3.618 3.875-5.943 4.134-2.583 0.517-5.169-0.259-7.235-1.809l-64.082-50.128-43.412 60.726-166.152 252.198 3.875 2.583-45.737 69.51c16.022 19.378 23.516 41.344 22.224 65.633-1.55 31.268-17.573 61.499-31.268 82.947v0l-35.66 54.007-196.902-129.718 31.268-47.546c0 0 0 0 0 0l4.134-6.461c14.472-21.188 35.66-47.805 63.827-61.499 13.176-6.461 26.876-9.82 40.827-9.82 9.303 0 18.606 1.292 28.168 4.134l45.737-69.51 6.202 4.134 166.152-252.198 38.761-64.082-73.644-40.57c-2.325-1.292-3.875-3.36-4.393-5.943s0-5.169 1.55-7.235l96.127-132.561 0.517-0.517c0-0.259 0.259-0.259 0.517-0.517-9.82-6.975-19.378-14.213-28.426-21.188-18.087-13.954-35.142-27.131-50.647-32.559-40.052-14.213-82.429 10.853-104.134 27.131-16.277 11.885-42.12-0.775-59.431-19.378-33.077-35.66-25.067-70.802-8.27-90.439 22.738-26.357 77.779-35.66 121.448-35.66 14.986 0 28.681 1.033 39.277 3.101 14.472 2.583 29.199 8.784 43.671 14.472 27.131 11.112 50.647 20.929 65.891 6.202 19.637-19.123 55.038-21.188 74.42-20.929 30.232 0.775 60.209 8.011 80.105 19.637 38.243 22.224 101.551 28.681 135.403 13.954 30.491-13.435 119.898-26.617 153.748 1.809 8.27 7.494 16.795 19.896 11.626 40.311zM71.168 809.884l171.062 112.663 18.345-28.168-171.062-112.663-18.345 28.168zM156.183 712.726c-24.806 12.404-44.445 36.693-57.88 56.33l171.062 112.663c12.663-20.156 27.39-47.546 28.94-75.194 1.809-31.782-14.213-58.398-48.577-80.879-34.368-22.738-64.858-26.876-93.54-12.921zM268.587 645.284l-35.142 53.487c8.27 3.618 16.536 8.011 24.806 13.696 8.525 5.425 15.764 11.371 22.224 17.573l35.142-53.487-47.027-31.268zM449.47 384.040l-166.411 252.459 37.21 24.547 166.152-252.198 49.873-70.029 0.775-0.775c0.517-0.517 43.671-46.772 50.647-81.655l-37.984-25.067c-29.458 20.156-55.038 78.037-55.298 78.813l-44.962 73.903zM508.642 133.388c-0.517 0.517-1.033 1.033-1.55 1.809l-91.73 126.359 67.183 36.951c7.752-16.277 32.3-64.6 61.759-82.172 1.55-1.033 3.36-1.292 5.169-1.292 2.068 0 3.875 0.517 5.684 1.809l43.671 28.94c3.36 2.068 5.169 5.943 4.651 9.82v0c-4.393 34.109-39.277 75.971-51.164 89.407l58.398 45.477 79.846-134.111c23.257-48.322 16.022-97.419 4.91-132.302-5.943 2.325-11.626 4.91-17.573 7.235-25.325 10.853-51.423 21.707-80.879 25.325-1.809 0.259-3.875 0.517-5.684 0.517-0.517 0-1.033 0-1.809 0-1.292 0-2.583 0.259-3.875 0.259-0.517 0-1.292 0-1.809 0-1.292 0-2.842 0-4.134 0-0.517 0-1.033 0-1.292 0-1.809 0-3.618-0.259-5.425-0.259-0.259 0-0.517 0-0.775 0-1.55-0.259-3.101-0.259-4.651-0.517-0.517 0-1.033-0.259-1.55-0.259-1.292-0.259-2.583-0.517-3.875-0.775-0.517 0-1.033-0.259-1.55-0.259-1.55-0.259-3.101-0.517-4.651-1.033-0.259 0-0.517 0-0.517-0.259-1.809-0.517-3.618-0.775-5.169-1.292-0.259 0-0.517-0.259-0.775-0.259-1.55-0.517-2.842-0.775-4.393-1.292-0.517-0.259-0.775-0.259-1.292-0.517-1.292-0.517-2.842-1.033-4.134-1.55-0.259 0-0.517-0.259-0.775-0.259-3.36-1.292-6.719-2.842-10.076-4.393-0.259 0-0.259-0.259-0.517-0.259-1.55-0.775-3.101-1.55-4.393-2.068-0.259 0-0.517-0.259-0.517-0.259-5.169-2.842-9.82-5.684-14.727-8.525v0zM588.229 253.031c0 0 0 0 0 0v0c0 0 0 0 0 0zM948.184 2.637c-26.876-22.738-110.336-11.371-137.471 0.517-42.377 18.606-111.373 7.494-149.356-14.727-35.918-20.929-111.113-25.325-135.92-1.033-22.479 21.707-52.974 9.303-82.429-2.842-13.435-5.684-27.648-11.371-40.311-13.696-21.188-3.875-52.456-3.618-79.587 0.517-32.3 4.91-56.075 14.472-66.928 27.131-20.156 23.257-9.303 51.164 7.752 69.77 15.246 16.277 32.3 22.224 38.761 17.314 24.289-18.087 71.835-45.737 118.606-29.199 17.828 6.202 35.918 20.156 55.038 34.883 33.592 26.098 71.835 55.557 118.606 49.873 27.39-3.36 52.456-13.954 76.745-24.289 42.894-18.087 87.079-36.951 144.187-16.536 35.142 12.663 65.119 12.663 88.888-0.259 30.232-16.022 43.671-48.577 49.873-73.129 2.583-10.595 0.517-18.345-6.461-24.289z" />
<glyph unicode="&#xe93f;" glyph-name="General_Delivery-Truck" d="M102.302 632.992h199.941v13.694h-186.248v41.312h227.787v13.694h-241.483zM987.203 477.559l-35.377 17.119-81.94 146.076c-5.021 8.902-14.379 14.379-24.651 14.379h-145.847v120.055c0 6.392-5.021 11.411-11.411 11.411h-653.462c-6.392 0-11.411-5.021-11.411-11.411v-536.601h76.689c-0.684-4.793-0.913-9.587-0.913-14.607 0-63.223 51.355-114.579 114.579-114.579s114.579 51.355 114.579 114.579c0 5.021-0.456 9.814-0.913 14.607h283.936c-0.684-4.793-0.913-9.587-0.913-14.607 0-63.223 51.355-114.579 114.579-114.579s114.579 51.355 114.579 114.579c0 4.109-0.229 8.217-0.684 12.097h155.435c3.88 0 6.847 2.967 6.847 6.847v212.951c0 9.129-5.479 17.803-13.694 21.683zM754.85 223.98c0-16.661-13.467-30.127-30.127-30.127s-30.127 13.467-30.127 30.127 13.467 30.127 30.127 30.127 30.127-13.467 30.127-30.127zM834.051 592.364l49.529-91.754h-144.022v91.754h94.492zM243.586 223.98c0-16.661-13.467-30.127-30.127-30.127s-30.127 13.467-30.127 30.127 13.467 30.127 30.127 30.127c16.661 0 30.127-13.467 30.127-30.127zM324.61 252.282c-12.553 49.529-57.518 86.277-111.156 86.277s-98.374-36.748-111.156-86.277h-65.505v520.852h648.898v-441.195c-35.377-12.782-62.766-42.682-72.125-79.428h-288.956z" />
<glyph unicode="&#xe940;" glyph-name="General_Disaster-Mapping" d="M996.578 829.030h-969.156c-3.848 0-6.789-2.942-6.789-6.789v-748.481c0-3.848 2.942-6.789 6.789-6.789h860.063c0 0 0 0 0 0 1.357 0 2.716 0.452 3.848 1.131 0.226 0 0.226 0.226 0.452 0.452s0.452 0.226 0.679 0.452v0l108.866 108.866c0 0 0 0 0 0 0.226 0.226 0.452 0.679 0.679 0.906 0 0 0.226 0.226 0.226 0.226 0.226 0.226 0.226 0.452 0.452 0.679 0 0.226 0 0.226 0.226 0.452s0.226 0.679 0.226 0.906c0 0 0 0.226 0 0.226 0 0.452 0 0.679 0 1.131 0 0 0 0 0 0.226v639.616c0.226 3.622-2.942 6.789-6.564 6.789zM989.788 794.175l-41.419-21.728-135.346 43.003h176.766v-21.274zM76.989 757.735l102.302-54.321-145.079-52.737v93.703l42.776 13.355zM34.213 758.416v21.955l25.801-13.806-25.801-8.148zM249.004 398.319c-0.679 0-1.585 0.226-2.263 0.226-0.226 0-0.452 0-0.679 0-0.906 0.226-1.81 0.452-2.716 0.679 0 0 0 0 0 0-0.906 0.226-1.81 0.679-2.716 0.906v0c-11.996 4.526-20.37 16.297-20.37 29.649 0 9.505 4.073 18.107 10.865 23.765 2.942 2.491 6.111 4.526 9.959 5.883 0 0 0 0 0 0 1.131 0.452 2.491 0.906 3.848 1.131v0c2.491 0.679 4.979 0.906 7.468 0.906 16.297 0 29.649-11.996 31.688-27.613v0c0-0.679 0.226-1.131 0.226-1.81 0-0.906 0.226-1.585 0.226-2.491 0-17.654-14.259-31.913-31.913-31.913-1.585 0.452-2.716 0.452-3.622 0.679zM667.719 624.878l-156.394-82.159-157.753 83.744 133.989 57.714c12.675-24.896 14.711-78.991 14.711-78.991 0-5.432 4.301-9.733 9.733-9.733s9.733 4.301 9.733 9.733c0 0 2.036 54.547 14.938 79.443l128.558-55.678c0.679-1.585 1.585-2.942 2.491-4.073zM488.462 738.724c0 13.126 10.639 23.539 23.539 23.539 13.126 0 23.539-10.639 23.539-23.539s-10.639-23.539-23.539-23.539c-13.126 0-23.539 10.41-23.539 23.539zM512.001 790.78c-28.744 0-52.056-23.314-52.056-52.056 0-2.036 0.226-4.301 0.452-6.338l-74.011 32.139 127.426 46.398 126.52-46.398-76.501-33.045c0.226 2.263 0.452 4.752 0.452 7.243-0.226 28.744-23.539 52.056-52.282 52.056zM465.151 715.638c3.167-7.017 7.923-13.581 14.032-20.37l-141.005-60.656-125.616 66.541 155.264 56.583 97.323-42.098zM496.836 535.025l-175.633-92.344c-5.883 32.818-34.629 57.714-69.257 57.714-16.297 0-31.233-5.658-43.229-14.938l-70.615 48.209 199.398 85.78 159.34-84.422zM322.334 427.969l188.988 99.36 203.699-107.96-205.964-138.968-189.667 129.462c1.81 5.658 2.716 11.769 2.942 18.107zM525.807 535.025l150.058 78.763c1.81-2.036 3.622-4.073 5.658-6.111 17.881-19.917 20.598-90.533 20.598-90.533 0-5.658 4.526-10.184 10.184-10.184s10.184 4.526 10.184 10.184c0 0 2.036 53.415 14.259 80.573l147.569-64.052-156.849-105.923-201.663 107.282zM736.975 654.98c0-0.226 0-0.452 0-0.679 0-0.452-0.226-1.131-0.226-1.585 0-0.226 0-0.452-0.226-0.679-0.226-0.679-0.226-1.131-0.452-1.81 0-0.452-0.226-0.679-0.452-1.131 0-0.226-0.226-0.452-0.226-0.679-0.226-0.452-0.226-0.906-0.452-1.131 0 0 0-0.226-0.226-0.226-0.452-0.906-0.906-1.81-1.585-2.716-4.301-7.017-11.996-11.543-20.823-11.543-0.226 0-0.679 0-0.906 0-6.338 0.226-11.996 2.716-16.070 6.789v0c-4.752 4.526-7.694 10.865-7.694 17.881 0 13.581 11.090 24.671 24.671 24.671 12.222 0 22.633-9.053 24.444-20.823 0-0.679 0.226-1.131 0.226-1.81s0-1.357 0-2.036c0-1.131 0-1.81 0-2.491zM712.305 711.792c-30.102 0-54.547-24.444-54.547-54.547 0-3.848 0.452-7.243 1.131-10.865l-113.619 49.34c5.658 6.338 9.959 12.449 13.126 19.013l100.265 43.229 154.133-56.583-49.115-25.801c-7.468 21.049-27.613 36.214-51.377 36.214zM676.771 765.43l105.244 45.267 149.152-47.304-102.302-53.867-152.096 55.904zM658.211 772.222l-117.24 43.003h217.279l-100.039-43.003zM368.28 772.222l-99.135 43.003h217.279l-118.144-43.003zM349.72 765.658l-153.227-55.904-101.396 53.641 150.058 47.53 104.567-45.267zM195.361 694.814l126.746-67.222-197.362-84.874-90.533 61.789v31.688l161.15 58.62zM110.036 536.382l-75.821-32.592v84.422l75.821-51.831zM123.388 527.328l75.37-51.377c-10.639-12.222-16.976-28.291-16.976-45.72 0-18.786 6.789-34.855 19.013-50.699l-166.354-87.59v197.135l88.947 38.25zM209.848 368.671c0.906-0.906 1.585-1.81 2.491-2.716 23.085-25.801 26.481-116.787 26.481-116.787 0-7.243 5.883-13.355 13.355-13.355s13.355 5.883 13.355 13.355c0 0 3.395 90.987 26.481 116.787 9.733 10.184 17.427 20.143 22.633 30.554l182.65-124.71-279.52-188.308-183.33 175.86v17.201l175.407 92.118zM509.059 263.878l268.43-183.33h-540.030l271.6 183.33zM521.281 272.026l207.321 140.1 261.187-138.516v-8.374l-80.348-75.821h-21.728c-3.848 0-6.789-2.942-6.789-6.789v-20.143l-83.744-78.991-275.899 188.535zM929.131 189.188l60.656 57.035v-57.035h-60.656zM741.275 420.727l157.98 106.603 90.533-39.156v-199.172l-248.512 131.725zM912.609 536.382l77.18 52.056v-85.554l-77.18 33.498zM897.898 542.719l-153.227 66.541c14.259 15.165 22.408 29.876 22.408 47.983 0 1.357 0 2.942-0.226 4.301l63.372 33.27 159.791-58.62v-31.688l-92.118-61.789zM846.293 703.416l103.208 54.321 40.287-12.675v-94.154l-143.494 52.509zM966.477 766.564l23.314 12.222v-19.692l-23.314 7.468zM214.374 815.449l-136.026-43.003-44.133 23.314v19.692h180.159zM34.213 240.566l167.033-160.016h-167.033v160.016zM813.703 80.549l66.994 63.372v-63.372h-66.994z" />
</font>
</defs>
</svg>
